<svg width="64" height="64" viewBox="0 0 64 64" fill="none" xmlns="http://www.w3.org/2000/svg">
<rect width="64" height="64" rx="32" fill="#7EB082"/>
<path d="M45.2132 46.9995C41.6399 46.9995 38.1566 46.2009 34.7633 44.6037C31.37 43.0065 28.3645 40.8955 25.7468 38.2705C23.1291 35.6455 21.0239 32.6317 19.4311 29.229C17.8384 25.8263 17.042 22.3333 17.042 18.75C17.042 18.25 17.2082 17.8333 17.5406 17.5C17.873 17.1667 18.2885 17 18.7871 17H25.5183C25.9061 17 26.2523 17.125 26.5571 17.375C26.8618 17.625 27.0418 17.9444 27.0972 18.3333L28.1775 24.1666C28.2329 24.5554 28.226 24.9096 28.1567 25.229C28.0875 25.5485 27.9282 25.8332 27.6789 26.0832L25.4594 28.3553C24.4139 29.4255 24.1941 31.075 25.068 32.2894C25.9446 33.5076 26.9395 34.6749 28.0529 35.7914C29.1779 36.9196 30.3778 37.9496 31.6525 38.8815C32.8921 39.7877 34.5916 39.5676 35.6758 38.4804L37.7341 36.4164C37.9834 36.1664 38.3089 35.9789 38.7106 35.8539C39.1122 35.7289 39.507 35.6942 39.8948 35.7497L45.6287 36.9164C46.0165 36.9997 46.3351 37.1872 46.5844 37.4788C46.8337 37.7705 46.9583 38.1108 46.9583 38.4997V45.2496C46.9583 45.7496 46.7921 46.1662 46.4597 46.4995C46.1273 46.8329 45.7118 46.9995 45.2132 46.9995Z" fill="white"/>
</svg>
