<svg width="64" height="64" viewBox="0 0 64 64" fill="none" xmlns="http://www.w3.org/2000/svg">
<rect x="0.5" y="0.5" width="63" height="63" rx="31.5" fill="white"/>
<path d="M17.5173 47.839C16.6881 48.0816 15.9184 47.3119 16.161 46.4827L18.4003 38.8288C18.4751 38.5734 18.4529 38.3001 18.3454 38.0567C17.9024 37.053 17.5546 36.0275 17.3023 34.9801C17.0183 33.8015 16.8763 32.5956 16.8763 31.3622C16.8763 29.1818 17.29 27.1328 18.1173 25.2152C18.9447 23.2975 20.0675 21.6294 21.4857 20.2109C22.904 18.7923 24.5718 17.6693 26.4892 16.8418C28.4065 16.0143 30.4551 15.6006 32.6351 15.6006C34.8151 15.6006 36.8641 16.0143 38.7823 16.8416C40.7005 17.669 42.369 18.7918 43.7879 20.21C45.2069 21.6283 46.3302 23.2961 47.1579 25.2135C47.9856 27.1308 48.3995 29.1794 48.3995 31.3594C48.3995 33.5394 47.9857 35.5884 47.1582 37.5066C46.3307 39.4248 45.2077 41.0933 43.7892 42.5122C42.3706 43.9312 40.7025 45.0545 38.7849 45.8822C36.8672 46.7099 34.8182 47.1238 32.6379 47.1238C31.4045 47.1238 30.1985 46.9818 29.02 46.6978C27.9725 46.4454 26.947 46.0977 25.9434 45.6546C25.7 45.5472 25.4266 45.525 25.1712 45.5997L17.5173 47.839Z" fill="#7EB082"/>
<path d="M36.9932 36.4898C36.9932 37.0936 36.5038 37.5831 35.9 37.5831H26.8875C26.2837 37.5831 25.7942 37.0936 25.7942 36.4898V36.1878C25.7942 35.584 26.2837 35.0945 26.8875 35.0945H35.9C36.5038 35.0945 36.9932 35.584 36.9932 36.1878V36.4898Z" fill="white"/>
<path d="M40.7263 31.5124C40.7263 32.1162 40.2368 32.6057 39.633 32.6057H26.8875C26.2837 32.6057 25.7942 32.1162 25.7942 31.5124V31.2104C25.7942 30.6066 26.2837 30.1171 26.8875 30.1171H39.633C40.2368 30.1171 40.7263 30.6066 40.7263 31.2104V31.5124Z" fill="white"/>
<path d="M40.7053 26.6105C40.7053 27.2143 40.2159 27.7038 39.612 27.7038H26.8666C26.2628 27.7038 25.7733 27.2143 25.7733 26.6105V26.3085C25.7733 25.7047 26.2628 25.2152 26.8666 25.2152H39.612C40.2159 25.2152 40.7053 25.7047 40.7053 26.3085V26.6105Z" fill="white"/>
<rect x="0.5" y="0.5" width="63" height="63" rx="31.5" stroke="#7EB082"/>
</svg>
