<svg width="80" height="30" viewBox="0 0 80 30" fill="none" xmlns="http://www.w3.org/2000/svg">
<path d="M6.28124 20.9925C5.15731 20.9925 4.23716 20.5355 3.52081 19.6215V24.179H1.16797V11.8219H3.52081V12.952C4.22481 12.0504 5.14495 11.5996 6.28124 11.5996C7.45457 11.5996 8.40556 12.0195 9.13425 12.8594C9.87533 13.6869 10.2459 14.8294 10.2459 16.2868C10.2459 17.7441 9.87533 18.8928 9.13425 19.7326C8.40556 20.5725 7.45457 20.9925 6.28124 20.9925ZM5.54018 18.899C6.21948 18.899 6.76292 18.6581 7.1705 18.1765C7.59043 17.6948 7.80041 17.0648 7.80041 16.2868C7.80041 15.521 7.59043 14.8973 7.1705 14.4156C6.76292 13.9339 6.21948 13.6931 5.54018 13.6931C5.15731 13.6931 4.77443 13.7918 4.39155 13.9895C4.00868 14.1871 3.71843 14.4279 3.52081 14.712V17.88C3.71843 18.1641 4.00868 18.4049 4.39155 18.6025C4.78678 18.8001 5.16965 18.899 5.54018 18.899Z" fill="#273D94"/>
<path d="M14.3216 20.7695H11.9688V11.8213H14.3216V20.7695Z" fill="#273D94"/>
<path d="M20.8209 20.9925C19.4376 20.9925 18.3013 20.554 17.412 19.6771C16.5227 18.8001 16.0781 17.6701 16.0781 16.2868C16.0781 14.9158 16.5227 13.7918 17.412 12.915C18.3013 12.0381 19.4376 11.5996 20.8209 11.5996C22.4018 11.5996 23.5813 12.1368 24.3594 13.2114L22.8217 14.6565C22.3894 14.0142 21.7595 13.6931 20.932 13.6931C20.2157 13.6931 19.629 13.9339 19.172 14.4156C18.7274 14.8849 18.505 15.5086 18.505 16.2868C18.505 17.0648 18.7274 17.6948 19.172 18.1765C19.629 18.6581 20.2157 18.899 20.932 18.899C21.7348 18.899 22.3647 18.5778 22.8217 17.9356L24.3594 19.3621C23.5813 20.449 22.4018 20.9925 20.8209 20.9925Z" fill="#273D94"/>
<path d="M34.6429 20.7702H31.6972L29.3258 17.3242L28.2513 18.4729V20.7702H25.8984V8.41309H28.2513V15.8051L31.6416 11.8219H34.5317L30.9932 15.8792L34.6429 20.7702Z" fill="#273D94"/>
<path d="M40.5393 20.7702H37.89V10.7289H34.2773V8.41309H44.1333V10.7289H40.5393V20.7702Z" fill="#273D94"/>
<path d="M48.1606 20.9925C46.7773 20.9925 45.6349 20.5601 44.7332 19.6956C43.8316 18.831 43.3809 17.6948 43.3809 16.2868C43.3809 14.9652 43.8132 13.8536 44.6777 12.952C45.5546 12.0504 46.6662 11.5996 48.0125 11.5996C49.3463 11.5996 50.427 12.0566 51.2545 12.9705C52.0821 13.8721 52.4958 15.0578 52.4958 16.5276V17.0463H45.8449C45.9189 17.6391 46.1845 18.1332 46.6415 18.5285C47.0985 18.9237 47.6913 19.1213 48.42 19.1213C48.8152 19.1213 49.2413 19.041 49.6983 18.8805C50.1676 18.7198 50.5382 18.5038 50.8099 18.232L51.8474 19.7511C50.9458 20.5787 49.7169 20.9925 48.1606 20.9925ZM50.2171 15.4531C50.18 14.9467 49.9762 14.4897 49.6057 14.0821C49.2475 13.6745 48.7165 13.4708 48.0125 13.4708C47.3455 13.4708 46.8268 13.6745 46.4562 14.0821C46.0857 14.4774 45.8696 14.9343 45.8078 15.4531H50.2171Z" fill="#273D94"/>
<path d="M58.3638 20.9925C56.9805 20.9925 55.8442 20.554 54.9549 19.6771C54.0657 18.8001 53.6211 17.6701 53.6211 16.2868C53.6211 14.9158 54.0657 13.7918 54.9549 12.915C55.8442 12.0381 56.9805 11.5996 58.3638 11.5996C59.9447 11.5996 61.1242 12.1368 61.9023 13.2114L60.3646 14.6565C59.9324 14.0142 59.3025 13.6931 58.4749 13.6931C57.7586 13.6931 57.1719 13.9339 56.7149 14.4156C56.2703 14.8849 56.048 15.5086 56.048 16.2868C56.048 17.0648 56.2703 17.6948 56.7149 18.1765C57.1719 18.6581 57.7586 18.899 58.4749 18.899C59.2778 18.899 59.9076 18.5778 60.3646 17.9356L61.9023 19.3621C61.1242 20.449 59.9447 20.9925 58.3638 20.9925Z" fill="#273D94"/>
<path d="M71.8504 20.7702H69.4975V15.3234C69.4975 14.7305 69.3555 14.3106 69.0715 14.0636C68.7874 13.8166 68.3736 13.6931 67.8301 13.6931C67.0027 13.6931 66.3234 14.0451 65.7923 14.7491V20.7702H63.4395V8.41309H65.7923V12.9891C66.1134 12.6062 66.5457 12.2789 67.0892 12.0072C67.6449 11.7355 68.2625 11.5996 68.9418 11.5996C69.9051 11.5996 70.6276 11.8466 71.1093 12.3406C71.6034 12.8347 71.8504 13.5263 71.8504 14.4156V20.7702Z" fill="#273D94"/>
<path d="M14.115 10.4344C13.8377 10.7118 13.5083 10.8505 13.1269 10.8505C12.7455 10.8505 12.4161 10.7118 12.1387 10.4344C11.8613 10.157 11.7227 9.82761 11.7227 9.44622C11.7227 9.06484 11.8613 8.73545 12.1387 8.45807C12.4161 8.18068 12.7455 8.04199 13.1269 8.04199C13.5083 8.04199 13.8377 8.18068 14.115 8.45807C14.3923 8.73545 14.531 9.06484 14.531 9.44622C14.531 9.82761 14.3923 10.157 14.115 10.4344Z" fill="#F89D46"/>
<path d="M79.2495 19.4623C78.7502 19.9614 78.1579 20.2108 77.4718 20.2108C76.7855 20.2108 76.1929 19.9614 75.6939 19.4623C75.1949 18.9633 74.9453 18.3707 74.9453 17.6845C74.9453 16.9984 75.1949 16.4058 75.6939 15.9067C76.1929 15.4077 76.7855 15.1582 77.4718 15.1582C78.1579 15.1582 78.7502 15.4077 79.2495 15.9067C79.7487 16.4058 79.9979 16.9984 79.9979 17.6845C79.9979 18.3707 79.7487 18.9633 79.2495 19.4623Z" fill="#F89D46"/>
</svg>
