<svg width="217" height="26" viewBox="0 0 217 26" fill="none" xmlns="http://www.w3.org/2000/svg">
<path d="M35.6914 11.8008V11.5312C35.6914 10.6172 35.8242 9.76953 36.0898 8.98828C36.3555 8.19922 36.7383 7.51562 37.2383 6.9375C37.7461 6.35156 38.3633 5.89844 39.0898 5.57812C39.8242 5.25 40.6523 5.08594 41.5742 5.08594C42.5039 5.08594 43.332 5.25 44.0586 5.57812C44.793 5.89844 45.4141 6.35156 45.9219 6.9375C46.4297 7.51562 46.8164 8.19922 47.082 8.98828C47.3477 9.76953 47.4805 10.6172 47.4805 11.5312V11.8008C47.4805 12.7148 47.3477 13.5625 47.082 14.3438C46.8164 15.125 46.4297 15.8086 45.9219 16.3945C45.4141 16.9727 44.7969 17.4258 44.0703 17.7539C43.3438 18.0742 42.5195 18.2344 41.5977 18.2344C40.668 18.2344 39.8359 18.0742 39.1016 17.7539C38.375 17.4258 37.7578 16.9727 37.25 16.3945C36.7422 15.8086 36.3555 15.125 36.0898 14.3438C35.8242 13.5625 35.6914 12.7148 35.6914 11.8008ZM38.5156 11.5312V11.8008C38.5156 12.3711 38.5742 12.9102 38.6914 13.418C38.8086 13.9258 38.9922 14.3711 39.2422 14.7539C39.4922 15.1367 39.8125 15.4375 40.2031 15.6562C40.5938 15.875 41.0586 15.9844 41.5977 15.9844C42.1211 15.9844 42.5742 15.875 42.957 15.6562C43.3477 15.4375 43.668 15.1367 43.918 14.7539C44.168 14.3711 44.3516 13.9258 44.4688 13.418C44.5938 12.9102 44.6562 12.3711 44.6562 11.8008V11.5312C44.6562 10.9688 44.5938 10.4375 44.4688 9.9375C44.3516 9.42969 44.1641 8.98047 43.9062 8.58984C43.6562 8.19922 43.3359 7.89453 42.9453 7.67578C42.5625 7.44922 42.1055 7.33594 41.5742 7.33594C41.043 7.33594 40.582 7.44922 40.1914 7.67578C39.8086 7.89453 39.4922 8.19922 39.2422 8.58984C38.9922 8.98047 38.8086 9.42969 38.6914 9.9375C38.5742 10.4375 38.5156 10.9688 38.5156 11.5312ZM56.7402 5.32031V7.38281H49.5917V5.32031H56.7402ZM51.6542 2.21484H54.4784V14.4961C54.4784 14.8867 54.5331 15.1875 54.6425 15.3984C54.7597 15.6016 54.9198 15.7383 55.123 15.8086C55.3261 15.8789 55.5644 15.9141 55.8378 15.9141C56.0331 15.9141 56.2206 15.9023 56.4003 15.8789C56.58 15.8555 56.7245 15.832 56.8339 15.8086L56.8456 17.9648C56.6112 18.0352 56.3378 18.0977 56.0253 18.1523C55.7206 18.207 55.3691 18.2344 54.9706 18.2344C54.3222 18.2344 53.748 18.1211 53.248 17.8945C52.748 17.6602 52.3573 17.2812 52.0761 16.7578C51.7948 16.2344 51.6542 15.5391 51.6542 14.6719V2.21484ZM69.8084 15.75V18H60.3631V15.75H69.8084ZM69.5506 7.07812L61.3241 18H59.4959V16.1836L67.6756 5.32031H69.5506V7.07812ZM68.4608 5.32031V7.57031H59.6366V5.32031H68.4608ZM76.8298 16.6172L80.2752 5.32031H83.2986L78.2127 19.9336C78.0955 20.2461 77.9431 20.5859 77.7556 20.9531C77.5681 21.3203 77.322 21.668 77.0173 21.9961C76.7205 22.332 76.3494 22.6016 75.9041 22.8047C75.4588 23.0156 74.9197 23.1211 74.2869 23.1211C74.0369 23.1211 73.7947 23.0977 73.5603 23.0508C73.3338 23.0117 73.1189 22.9688 72.9158 22.9219L72.9041 20.7656C72.9822 20.7734 73.0759 20.7812 73.1853 20.7891C73.3025 20.7969 73.3963 20.8008 73.4666 20.8008C73.9353 20.8008 74.3259 20.7422 74.6384 20.625C74.9509 20.5156 75.2048 20.3359 75.4002 20.0859C75.6033 19.8359 75.7752 19.5 75.9158 19.0781L76.8298 16.6172ZM74.8845 5.32031L77.8963 14.8125L78.4002 17.7891L76.4431 18.293L71.8377 5.32031H74.8845ZM90.1208 15.7617L93.2262 5.32031H96.1559L91.7497 18H89.9216L90.1208 15.7617ZM87.7419 5.32031L90.9059 15.8086L91.0583 18H89.2302L84.8005 5.32031H87.7419Z" fill="#435259"/>
<path d="M102.055 7.89844V18H99.2305V5.32031H101.891L102.055 7.89844ZM101.598 11.1914L100.637 11.1797C100.637 10.3047 100.746 9.49609 100.965 8.75391C101.184 8.01172 101.504 7.36719 101.926 6.82031C102.348 6.26562 102.871 5.83984 103.496 5.54297C104.129 5.23828 104.859 5.08594 105.688 5.08594C106.266 5.08594 106.793 5.17188 107.27 5.34375C107.754 5.50781 108.172 5.76953 108.523 6.12891C108.883 6.48828 109.156 6.94922 109.344 7.51172C109.539 8.07422 109.637 8.75391 109.637 9.55078V18H106.812V9.79688C106.812 9.17969 106.719 8.69531 106.531 8.34375C106.352 7.99219 106.09 7.74219 105.746 7.59375C105.41 7.4375 105.008 7.35938 104.539 7.35938C104.008 7.35938 103.555 7.46094 103.18 7.66406C102.812 7.86719 102.512 8.14453 102.277 8.49609C102.043 8.84766 101.871 9.25391 101.762 9.71484C101.652 10.1758 101.598 10.668 101.598 11.1914ZM109.461 10.4414L108.137 10.7344C108.137 9.96875 108.242 9.24609 108.453 8.56641C108.672 7.87891 108.988 7.27734 109.402 6.76172C109.824 6.23828 110.344 5.82812 110.961 5.53125C111.578 5.23438 112.285 5.08594 113.082 5.08594C113.73 5.08594 114.309 5.17578 114.816 5.35547C115.332 5.52734 115.77 5.80078 116.129 6.17578C116.488 6.55078 116.762 7.03906 116.949 7.64062C117.137 8.23438 117.23 8.95312 117.23 9.79688V18H114.395V9.78516C114.395 9.14453 114.301 8.64844 114.113 8.29688C113.934 7.94531 113.676 7.70312 113.34 7.57031C113.004 7.42969 112.602 7.35938 112.133 7.35938C111.695 7.35938 111.309 7.44141 110.973 7.60547C110.645 7.76172 110.367 7.98438 110.141 8.27344C109.914 8.55469 109.742 8.87891 109.625 9.24609C109.516 9.61328 109.461 10.0117 109.461 10.4414ZM128.005 15.457V9.41016C128.005 8.95703 127.923 8.56641 127.759 8.23828C127.595 7.91016 127.345 7.65625 127.009 7.47656C126.681 7.29688 126.267 7.20703 125.767 7.20703C125.306 7.20703 124.907 7.28516 124.572 7.44141C124.236 7.59766 123.974 7.80859 123.786 8.07422C123.599 8.33984 123.505 8.64062 123.505 8.97656H120.693C120.693 8.47656 120.814 7.99219 121.056 7.52344C121.298 7.05469 121.65 6.63672 122.111 6.26953C122.572 5.90234 123.122 5.61328 123.763 5.40234C124.404 5.19141 125.122 5.08594 125.919 5.08594C126.872 5.08594 127.716 5.24609 128.45 5.56641C129.193 5.88672 129.775 6.37109 130.197 7.01953C130.626 7.66016 130.841 8.46484 130.841 9.43359V15.0703C130.841 15.6484 130.88 16.168 130.958 16.6289C131.044 17.082 131.165 17.4766 131.322 17.8125V18H128.427C128.294 17.6953 128.189 17.3086 128.111 16.8398C128.04 16.3633 128.005 15.9023 128.005 15.457ZM128.415 10.2891L128.439 12.0352H126.411C125.888 12.0352 125.427 12.0859 125.029 12.1875C124.63 12.2812 124.298 12.4219 124.032 12.6094C123.767 12.7969 123.568 13.0234 123.435 13.2891C123.302 13.5547 123.236 13.8555 123.236 14.1914C123.236 14.5273 123.314 14.8359 123.47 15.1172C123.626 15.3906 123.853 15.6055 124.15 15.7617C124.454 15.918 124.822 15.9961 125.251 15.9961C125.829 15.9961 126.333 15.8789 126.763 15.6445C127.2 15.4023 127.544 15.1094 127.794 14.7656C128.044 14.4141 128.177 14.082 128.193 13.7695L129.107 15.0234C129.013 15.3438 128.853 15.6875 128.626 16.0547C128.4 16.4219 128.103 16.7734 127.736 17.1094C127.376 17.4375 126.943 17.707 126.435 17.918C125.935 18.1289 125.357 18.2344 124.7 18.2344C123.872 18.2344 123.134 18.0703 122.486 17.7422C121.837 17.4062 121.329 16.957 120.962 16.3945C120.595 15.8242 120.411 15.1797 120.411 14.4609C120.411 13.7891 120.536 13.1953 120.786 12.6797C121.044 12.1562 121.419 11.7188 121.911 11.3672C122.411 11.0156 123.021 10.75 123.74 10.5703C124.458 10.3828 125.279 10.2891 126.2 10.2891H128.415ZM137.35 7.73438V18H134.526V5.32031H137.221L137.35 7.73438ZM141.229 5.23828L141.206 7.86328C141.034 7.83203 140.846 7.80859 140.643 7.79297C140.448 7.77734 140.252 7.76953 140.057 7.76953C139.573 7.76953 139.147 7.83984 138.78 7.98047C138.413 8.11328 138.104 8.30859 137.854 8.56641C137.612 8.81641 137.424 9.12109 137.292 9.48047C137.159 9.83984 137.081 10.2422 137.057 10.6875L136.413 10.7344C136.413 9.9375 136.491 9.19922 136.647 8.51953C136.803 7.83984 137.038 7.24219 137.35 6.72656C137.67 6.21094 138.069 5.80859 138.545 5.51953C139.03 5.23047 139.588 5.08594 140.221 5.08594C140.393 5.08594 140.577 5.10156 140.772 5.13281C140.975 5.16406 141.127 5.19922 141.229 5.23828ZM146.566 0V18H143.73V0H146.566ZM154.441 5.32031L148.922 11.4375L145.898 14.5312L145.16 12.1406L147.445 9.31641L151.031 5.32031H154.441ZM151.64 18L147.527 12.0469L149.308 10.0664L154.91 18H151.64ZM162.31 18.2344C161.372 18.2344 160.525 18.082 159.767 17.7773C159.017 17.4648 158.376 17.0312 157.845 16.4766C157.321 15.9219 156.919 15.2695 156.638 14.5195C156.357 13.7695 156.216 12.9609 156.216 12.0938V11.625C156.216 10.6328 156.36 9.73438 156.65 8.92969C156.939 8.125 157.341 7.4375 157.857 6.86719C158.372 6.28906 158.982 5.84766 159.685 5.54297C160.388 5.23828 161.15 5.08594 161.97 5.08594C162.876 5.08594 163.669 5.23828 164.349 5.54297C165.028 5.84766 165.591 6.27734 166.036 6.83203C166.489 7.37891 166.825 8.03125 167.044 8.78906C167.271 9.54688 167.384 10.3828 167.384 11.2969V12.5039H157.587V10.4766H164.595V10.2539C164.579 9.74609 164.478 9.26953 164.29 8.82422C164.11 8.37891 163.833 8.01953 163.458 7.74609C163.083 7.47266 162.583 7.33594 161.958 7.33594C161.489 7.33594 161.071 7.4375 160.704 7.64062C160.345 7.83594 160.044 8.12109 159.802 8.49609C159.56 8.87109 159.372 9.32422 159.239 9.85547C159.114 10.3789 159.052 10.9688 159.052 11.625V12.0938C159.052 12.6484 159.126 13.1641 159.275 13.6406C159.431 14.1094 159.657 14.5195 159.954 14.8711C160.251 15.2227 160.61 15.5 161.032 15.7031C161.454 15.8984 161.935 15.9961 162.474 15.9961C163.153 15.9961 163.759 15.8594 164.29 15.5859C164.821 15.3125 165.282 14.9258 165.673 14.4258L167.161 15.8672C166.888 16.2656 166.532 16.6484 166.095 17.0156C165.657 17.375 165.122 17.668 164.489 17.8945C163.864 18.1211 163.138 18.2344 162.31 18.2344ZM176.12 5.32031V7.38281H168.971V5.32031H176.12ZM171.034 2.21484H173.858V14.4961C173.858 14.8867 173.912 15.1875 174.022 15.3984C174.139 15.6016 174.299 15.7383 174.502 15.8086C174.705 15.8789 174.944 15.9141 175.217 15.9141C175.412 15.9141 175.6 15.9023 175.78 15.8789C175.959 15.8555 176.104 15.832 176.213 15.8086L176.225 17.9648C175.991 18.0352 175.717 18.0977 175.405 18.1523C175.1 18.207 174.748 18.2344 174.35 18.2344C173.702 18.2344 173.127 18.1211 172.627 17.8945C172.127 17.6602 171.737 17.2812 171.455 16.7578C171.174 16.2344 171.034 15.5391 171.034 14.6719V2.21484ZM182.043 5.32031V18H179.207V5.32031H182.043ZM179.019 1.99219C179.019 1.5625 179.16 1.20703 179.441 0.925781C179.73 0.636719 180.129 0.492188 180.636 0.492188C181.136 0.492188 181.531 0.636719 181.82 0.925781C182.109 1.20703 182.254 1.5625 182.254 1.99219C182.254 2.41406 182.109 2.76562 181.82 3.04688C181.531 3.32812 181.136 3.46875 180.636 3.46875C180.129 3.46875 179.73 3.32812 179.441 3.04688C179.16 2.76562 179.019 2.41406 179.019 1.99219ZM188.657 8.02734V18H185.833V5.32031H188.493L188.657 8.02734ZM188.153 11.1914L187.239 11.1797C187.247 10.2812 187.372 9.45703 187.614 8.70703C187.864 7.95703 188.208 7.3125 188.645 6.77344C189.091 6.23438 189.622 5.82031 190.239 5.53125C190.856 5.23438 191.544 5.08594 192.302 5.08594C192.911 5.08594 193.462 5.17188 193.954 5.34375C194.454 5.50781 194.88 5.77734 195.231 6.15234C195.591 6.52734 195.864 7.01562 196.052 7.61719C196.239 8.21094 196.333 8.94141 196.333 9.80859V18H193.497V9.79688C193.497 9.1875 193.407 8.70703 193.228 8.35547C193.056 7.99609 192.802 7.74219 192.466 7.59375C192.138 7.4375 191.728 7.35938 191.235 7.35938C190.751 7.35938 190.317 7.46094 189.935 7.66406C189.552 7.86719 189.228 8.14453 188.962 8.49609C188.704 8.84766 188.505 9.25391 188.364 9.71484C188.224 10.1758 188.153 10.668 188.153 11.1914ZM208.057 5.32031H210.623V17.6484C210.623 18.7891 210.381 19.7578 209.897 20.5547C209.412 21.3516 208.737 21.957 207.869 22.3711C207.002 22.793 205.998 23.0039 204.858 23.0039C204.373 23.0039 203.834 22.9336 203.24 22.793C202.655 22.6523 202.084 22.4258 201.53 22.1133C200.983 21.8086 200.526 21.4062 200.158 20.9062L201.483 19.2422C201.936 19.7812 202.436 20.1758 202.983 20.4258C203.53 20.6758 204.104 20.8008 204.705 20.8008C205.354 20.8008 205.905 20.6797 206.358 20.4375C206.819 20.2031 207.174 19.8555 207.424 19.3945C207.674 18.9336 207.799 18.3711 207.799 17.707V8.19141L208.057 5.32031ZM199.444 11.8008V11.5547C199.444 10.5938 199.561 9.71875 199.795 8.92969C200.03 8.13281 200.365 7.44922 200.803 6.87891C201.24 6.30078 201.772 5.85938 202.397 5.55469C203.022 5.24219 203.729 5.08594 204.518 5.08594C205.338 5.08594 206.037 5.23438 206.615 5.53125C207.201 5.82812 207.69 6.25391 208.08 6.80859C208.471 7.35547 208.776 8.01172 208.994 8.77734C209.221 9.53516 209.389 10.3789 209.498 11.3086V12.0938C209.397 13 209.225 13.8281 208.983 14.5781C208.74 15.3281 208.42 15.9766 208.022 16.5234C207.623 17.0703 207.131 17.4922 206.545 17.7891C205.967 18.0859 205.283 18.2344 204.494 18.2344C203.721 18.2344 203.022 18.0742 202.397 17.7539C201.78 17.4336 201.248 16.9844 200.803 16.4062C200.365 15.8281 200.03 15.1484 199.795 14.3672C199.561 13.5781 199.444 12.7227 199.444 11.8008ZM202.268 11.5547V11.8008C202.268 12.3789 202.323 12.918 202.432 13.418C202.549 13.918 202.725 14.3594 202.959 14.7422C203.201 15.1172 203.506 15.4141 203.873 15.6328C204.248 15.8438 204.69 15.9492 205.198 15.9492C205.862 15.9492 206.405 15.8086 206.826 15.5273C207.256 15.2461 207.584 14.8672 207.811 14.3906C208.045 13.9062 208.209 13.3672 208.303 12.7734V10.6523C208.256 10.1914 208.158 9.76172 208.01 9.36328C207.869 8.96484 207.678 8.61719 207.436 8.32031C207.194 8.01562 206.889 7.78125 206.522 7.61719C206.155 7.44531 205.721 7.35938 205.221 7.35938C204.713 7.35938 204.272 7.46875 203.897 7.6875C203.522 7.90625 203.213 8.20703 202.971 8.58984C202.737 8.97266 202.561 9.41797 202.444 9.92578C202.326 10.4336 202.268 10.9766 202.268 11.5547Z" fill="#11A642"/>
<g clip-path="url(#clip0_7503_81051)">
<rect x="1.36452" y="4.15652" width="19.1561" height="14.1986" rx="0.971946" fill="white" stroke="#11A642" stroke-width="1.94389"/>
<path d="M13.397 16.2308L5.99076 21.8996L5.89924 12.5733L13.397 16.2308Z" fill="white" stroke="#11A642" stroke-width="1.5"/>
<rect x="2.02734" y="4.72754" width="17.7617" height="12.8369" rx="1" fill="white"/>
<line x1="5.88867" y1="9.17259" x2="15.9328" y2="9.17259" stroke="#11A642" stroke-width="1.94389"/>
<line x1="5.88672" y1="12.8298" x2="13.6623" y2="12.8298" stroke="#11A642" stroke-width="1.94389"/>
</g>
<defs>
<clipPath id="clip0_7503_81051">
<rect width="22" height="21" fill="white" transform="translate(0.166016 3)"/>
</clipPath>
</defs>
</svg>
