<svg width="119" height="25" viewBox="0 0 119 25" fill="none" xmlns="http://www.w3.org/2000/svg">
<path fill-rule="evenodd" clip-rule="evenodd" d="M23.4881 11.8458C23.4881 5.3593 18.2299 0.101562 11.7431 0.101562C5.25634 0.101562 -0.00195312 5.35964 -0.00195312 11.8458C-0.00195312 18.3321 5.25651 23.591 11.7431 23.591C18.2297 23.591 23.4881 18.3326 23.4881 11.8458Z" fill="#FC3F1D"/>
<path fill-rule="evenodd" clip-rule="evenodd" d="M13.31 6.7561H12.2334C10.2271 6.7561 9.19918 7.78365 9.19918 9.25217C9.19918 10.9161 9.93323 11.6989 11.4016 12.7263L12.625 13.5585L9.10158 18.8436H6.45898L9.63973 14.1454C7.82879 12.8244 6.80141 11.5518 6.80141 9.44756C6.80141 6.7561 8.66103 4.94531 12.2334 4.94531H15.7568V18.8928H13.31V6.7561Z" fill="white"/>
<path fill-rule="evenodd" clip-rule="evenodd" d="M37.1171 0.125C31.909 0.125 27.6875 4.34651 27.6875 9.55464C27.6875 12.1575 28.7424 14.5145 30.4478 16.2211C32.1543 17.9282 36.1739 20.3987 36.4097 22.992C36.4453 23.3811 36.7269 23.6994 37.1172 23.6994C37.5074 23.6994 37.7889 23.3811 37.8246 22.992C38.0604 20.3987 42.0799 17.9282 43.7864 16.2211C45.4919 14.5145 46.5467 12.1575 46.5467 9.55464C46.5467 4.34651 42.3252 0.125 37.1172 0.125H37.1171Z" fill="#FF4433"/>
<path fill-rule="evenodd" clip-rule="evenodd" d="M37.1166 12.855C38.9396 12.855 40.4169 11.3771 40.4169 9.55475C40.4169 7.73179 38.9396 6.25391 37.1166 6.25391C35.2937 6.25391 33.8164 7.73179 33.8164 9.55475C33.8164 11.3771 35.2937 12.855 37.1166 12.855Z" fill="white"/>
<path fill-rule="evenodd" clip-rule="evenodd" d="M108.787 18.0315H107.384V13.9343H108.859C110.158 13.9343 110.92 14.5198 110.92 15.9951C110.92 17.4704 110.078 18.0315 108.787 18.0315ZM115.162 7.63261V20.421H118.192V7.63261H115.162ZM104.361 7.63261V20.421H108.964C111.938 20.421 114.047 18.8977 114.047 15.8909C114.047 13.0442 112.163 11.5453 109.012 11.5453H107.384V7.63219L104.361 7.63261ZM102.581 10.0219V7.63261H92.4385V10.0219H95.9986V20.4216H99.0214V10.0219H102.581ZM86.1924 18.2808C84.5887 18.2808 83.7713 16.9898 83.7713 14.039C83.7713 11.0645 84.637 9.77349 86.3449 9.77349C87.9964 9.77349 88.8064 11.0645 88.8064 14.0151C88.8064 16.9898 87.9405 18.2808 86.1924 18.2808ZM83.5467 7.63261H80.7483V24.1015H83.7713V18.9217C84.541 20.0603 85.6551 20.6699 86.9544 20.6699C89.897 20.6699 91.9334 18.3124 91.9334 14.0148C91.9334 9.7409 89.953 7.38396 87.1063 7.38396C85.6796 7.38396 84.5086 8.04125 83.6991 9.28401L83.5467 7.63261ZM75.2881 17.3669C74.9031 17.9279 74.1895 18.3851 73.1231 18.3851C71.8562 18.3851 71.2148 17.6715 71.2148 16.5809C71.2148 15.1298 72.2573 14.6006 74.8551 14.6006H75.2881V17.3669ZM78.3108 11.698C78.3108 8.60306 76.731 7.43221 73.532 7.43221C71.5275 7.43221 69.9482 8.06584 69.0337 8.60306V11.1207C69.8437 10.5035 71.6237 9.84582 73.1791 9.84582C74.6225 9.84582 75.2881 10.351 75.2881 11.7301V12.4356H74.7988C70.1723 12.4356 68.1198 13.9671 68.1198 16.5571C68.1198 19.1469 69.6912 20.5983 72.0328 20.5983C73.8125 20.5983 74.5743 20.0131 75.1595 19.4035H75.2881C75.3119 19.732 75.4161 20.1651 75.5126 20.4217H78.4629C78.3588 19.3794 78.3108 18.3371 78.3108 17.2947V11.698ZM64.4077 20.4221H67.992L61.7138 11.1448L67.4066 2.75781H64.2794L58.8112 10.8882V2.75781H55.7402V20.4215H58.8112V12.1307L64.4077 20.4221Z" fill="black"/>
</svg>
