<svg width="75" height="25" viewBox="0 0 75 25" fill="none" xmlns="http://www.w3.org/2000/svg">
<g clip-path="url(#clip0_7503_80973)">
<path d="M70.7213 9.234H74.1225C73.6923 5.92363 71.2746 4.18359 67.9143 4.18359C64.5132 4.18359 62.2389 5.98732 62.2389 9.08546C62.2389 12.608 65.1688 13.3931 66.7259 13.7115C68.7339 14.1146 70.7008 14.1571 70.7008 15.9395C70.7008 17.1491 69.7174 17.7433 68.3241 17.7433C66.603 17.7433 65.4557 16.852 65.1688 15.2394H61.8086C62.0134 18.7194 64.4517 20.5868 68.0374 20.5868C71.3565 20.5868 74.0815 19.0165 74.0815 15.6213C74.0815 11.9714 70.9468 11.3136 68.7544 10.974C67.2586 10.7407 65.6195 10.5284 65.6195 8.89445C65.6195 7.74858 66.4596 7.04835 67.8733 7.04835C69.5125 7.04835 70.4959 8.0033 70.7213 9.234Z" fill="black"/>
<path d="M59.9434 4.71094H56.7266V20.0955H59.9434V4.71094Z" fill="black"/>
<path d="M47.0157 14.7287H51.2161C50.5604 16.3839 49.0851 17.1689 47.3845 17.1689C44.3932 17.1689 42.9999 14.7711 42.9999 12.3944C42.9999 9.99654 44.3112 7.55627 47.3641 7.55627C49.2286 7.55627 50.6218 8.44752 51.1545 10.039L54.6172 10.039C54.023 6.45289 50.9906 4.39453 47.4051 4.39453C42.9794 4.39453 39.6602 7.51381 39.6602 12.4369C39.6602 17.4236 43.2662 20.3732 47.3845 20.3732C51.4414 20.3732 54.6172 17.6359 54.6172 13.3494V12.0974H47.0157V14.7287Z" fill="black"/>
<path d="M32.3029 4.39453C28.6148 4.39453 25.8898 6.79235 25.9103 10.7817H29.2295C29.1885 9.0417 30.2539 7.4502 32.1389 7.4502C33.7781 7.4502 34.7411 8.63854 34.7411 9.99656C34.7411 11.3547 33.7781 12.1186 31.9955 12.9463C29.5573 14.0709 27.8158 14.7924 26.0332 15.429V20.0974H38.4496V16.9568H29.9256C29.9256 16.9568 29.954 16.9476 29.968 16.9432C31.4178 16.4882 32.507 15.9939 33.7986 15.4077C36.5646 14.1346 38.1423 12.543 38.1423 9.82687C38.1423 6.49525 35.7656 4.39453 32.3029 4.39453Z" fill="black"/>
<path d="M17.1826 14.6875C13.0027 14.7087 12.3266 17.3188 12.1013 19.5257L11.9989 20.5017H11.1587L11.0563 19.5257C10.831 17.3188 10.1343 14.7087 6.09793 14.6875C5.42181 13.2444 5.13496 12.0773 5.13496 10.7617C5.13496 7.47264 7.7371 4.39563 11.589 4.39563C15.4409 4.39563 18.0021 7.45131 18.0021 10.783C18.0021 12.0773 17.8792 13.2444 17.1826 14.6875ZM11.5481 0.40625C5.19648 0.40625 -0.0078125 5.79621 -0.0078125 12.3956C-0.0078125 19.0163 5.19648 24.4062 11.5481 24.4062C17.9611 24.4062 23.1449 19.0163 23.1449 12.3956C23.1449 5.79623 17.9611 0.40625 11.5481 0.40625Z" fill="#299400"/>
</g>
<defs>
<clipPath id="clip0_7503_80973">
<rect width="74.1297" height="24" fill="white" transform="translate(0 0.390625)"/>
</clipPath>
</defs>
</svg>
