<svg width="24" height="24" viewBox="0 0 24 24" fill="none" xmlns="http://www.w3.org/2000/svg">
<g clip-path="url(#clip0_7601_81622)">
<g clip-path="url(#clip1_7601_81622)">
<path fill-rule="evenodd" clip-rule="evenodd" d="M8.07227 17.0821C8.72658 17.9005 9.39301 18.926 9.74177 19.5476C10.1665 20.3556 10.3426 20.9012 10.6585 21.8714C10.8433 22.4066 11.0193 22.5689 11.3888 22.5689C11.7928 22.5689 11.9775 22.2961 12.1191 21.8714C12.4143 20.9547 12.6422 20.2571 13.0031 19.5907C13.7126 18.3149 14.6069 17.1788 15.4806 16.0877C15.7206 15.7821 17.2486 13.9813 17.9357 12.5519C17.9357 12.5519 18.7765 10.9911 18.7765 8.80879C18.7765 6.76815 17.9478 5.35059 17.9478 5.35059L15.5479 5.99458L14.0856 9.83601L13.7247 10.3591L13.6488 10.4575L13.5504 10.5784L13.3863 10.7752L13.1464 11.0152L11.8481 12.0735L8.60747 13.9502L8.07227 17.0821Z" fill="#34A853"/>
<path fill-rule="evenodd" clip-rule="evenodd" d="M4.7207 12.2899C5.51662 14.1011 7.03414 15.6843 8.07 17.081L13.5585 10.5773C13.5585 10.5773 12.7833 11.5925 11.3865 11.5925C9.82578 11.5925 8.56024 10.3494 8.56024 8.77659C8.56024 7.6958 9.20422 6.95508 9.20422 6.95508L5.48375 7.94779L4.7207 12.2899Z" fill="#FBBC04"/>
<path fill-rule="evenodd" clip-rule="evenodd" d="M13.6249 1.7168C15.4464 2.30551 17.007 3.53831 17.9464 5.36135L13.5593 10.5874C13.5593 10.5874 14.2033 9.83464 14.2033 8.76604C14.2033 7.16213 12.8498 5.95011 11.3874 5.95011C10.001 5.95011 9.20511 6.95319 9.20511 6.95319L9.20508 3.65908L13.6249 1.7168Z" fill="#4285F4"/>
<path fill-rule="evenodd" clip-rule="evenodd" d="M5.72461 4.02161C6.81574 2.7233 8.72517 1.38184 11.3649 1.38184C12.6408 1.38184 13.6128 1.72023 13.6128 1.72023L9.20505 6.95833L6.08354 6.95831L5.72461 4.02161Z" fill="#1A73E8"/>
<path fill-rule="evenodd" clip-rule="evenodd" d="M4.72191 12.2898C4.72191 12.2898 4.00195 10.8603 4.00195 8.79885C4.00195 6.8462 4.76507 5.14394 5.73699 4.03027L9.2176 6.96528L4.72191 12.2898Z" fill="#EA4335"/>
</g>
</g>
<defs>
<clipPath id="clip0_7601_81622">
<rect width="24" height="24" fill="white"/>
</clipPath>
<clipPath id="clip1_7601_81622">
<rect width="110.525" height="21.2422" fill="white" transform="translate(4 1.37891)"/>
</clipPath>
</defs>
</svg>
