<svg width="125" height="28" viewBox="0 0 125 28" fill="none" xmlns="http://www.w3.org/2000/svg">
<g clip-path="url(#clip0_7503_80999)">
<path d="M8.60984 0.000976562L13.1598 5.88098H12.5298L12.1098 6.51098L7.83984 0.420977L8.11984 0.000976562H8.60984Z" fill="#00B4F3"/>
<path d="M26.0401 0.492266L22.3301 6.30227L22.1201 5.88227H21.3501L25.2001 0.0722656H25.7601L26.0401 0.492266Z" fill="#02B1F3"/>
<path d="M33.5285 14.422H26.6685L26.8785 14.002L26.6685 13.582H33.5985L33.8085 14.002L33.5285 14.422Z" fill="#02B1F3"/>
<path d="M21.8401 21.8398L25.3401 27.5098L25.0601 27.9998H24.4301L21.3501 22.5398L21.8401 21.8398Z" fill="#02B1F3"/>
<path d="M17.2201 14.491L13.5801 20.371L13.3001 19.881H12.6001L16.3101 14.001H16.9401L17.2201 14.491Z" fill="#00B4F3"/>
<path d="M0.28 13.5117L7.35 13.5817L7.07 14.0017L7.28 14.5617H0.35L0 14.0017L0.28 13.5117Z" fill="#02B1F3"/>
<path d="M8.05029 0.000976562L12.5303 5.88098H22.0503L25.7603 0.000976562H8.05029Z" fill="#00B4F3"/>
<path d="M26.8798 14.001H33.8798L25.7598 0.000976562L22.0498 5.88098L26.8798 14.001Z" fill="url(#paint0_linear_7503_80999)"/>
<path d="M26.8818 14.001H33.8818L25.0618 28.001L21.6318 22.121L26.8818 14.001Z" fill="url(#paint1_linear_7503_80999)"/>
<path d="M13.2319 19.881L18.4119 28.001H25.0619L16.9419 14.001L13.2319 19.881Z" fill="#47D4F8"/>
<path d="M0 14.001L3.71 19.881H13.23L16.94 14.001H0Z" fill="#00B4F3"/>
<path d="M12.5295 5.88195L7.06951 14.002H-0.000488281L8.04951 0.00195312L12.5295 5.88195Z" fill="url(#paint2_linear_7503_80999)"/>
<path d="M12.2489 -0.273438H-0.141113V14.2166H12.2489V-0.273438Z" fill="url(#paint3_linear_7503_80999)"/>
<path d="M47.6682 9.16836C47.0382 8.95836 45.7082 8.74836 44.5882 8.74836C42.5582 8.74836 41.4382 9.16836 41.4382 10.7084C41.4382 11.7584 41.9982 12.3184 44.3082 12.5284C47.1782 12.8084 48.4382 13.8584 48.4382 16.0984C48.4382 18.8284 46.6182 19.8084 43.3282 19.8084C42.0682 19.8084 40.6682 19.5984 39.6882 19.2484L40.1082 17.7084C40.8782 17.9884 42.2082 18.1284 43.2582 18.1284C45.2882 18.1284 46.4782 17.7084 46.4782 16.1684C46.4782 15.1184 45.9182 14.3484 43.5382 14.1384C40.7382 13.9284 39.4082 13.0884 39.4082 10.8484C39.4082 8.11836 41.2282 7.06836 44.4482 7.06836C45.6382 7.06836 47.0382 7.27836 47.9482 7.55836L47.6682 9.16836Z" fill="#00B4F3"/>
<path d="M52.7771 12.1811V16.5211C52.7771 17.7811 53.1271 18.3411 54.2471 18.3411C54.8071 18.3411 55.3671 18.2711 55.8571 18.1311L56.1371 19.4611C55.5771 19.6711 54.6671 19.8111 53.9671 19.8111C52.0071 19.8111 51.0971 19.2511 51.0971 16.5911V12.1811H49.5571V10.7111H51.0971V9.03105L52.7771 8.33105V10.7111H55.8571V12.1811H52.7771Z" fill="#00B4F3"/>
<path d="M64.8887 19.1816C63.8387 19.6016 62.2988 19.8816 61.1088 19.8816C58.4488 19.8816 57.4688 19.2516 57.4688 16.9416C57.4688 14.4216 58.9388 14.0016 60.9688 14.0016C61.8088 14.0016 62.5088 14.0716 63.3488 14.2816C63.3488 12.4616 62.8588 12.0416 60.9688 12.0416C60.0588 12.0416 59.0788 12.1816 58.3788 12.4616L58.0288 11.0616C58.7988 10.8516 59.9888 10.6416 61.2488 10.6416C63.8388 10.6416 65.0288 11.4116 65.0288 14.0716V19.1816H64.8887ZM63.2788 15.4716C62.7188 15.3316 61.9488 15.2616 61.2488 15.2616C59.7788 15.2616 59.2188 15.4016 59.2188 16.8016C59.2188 18.2716 59.6388 18.5516 61.1788 18.5516C61.8788 18.5516 62.6488 18.4116 63.2788 18.2016V15.4716Z" fill="#00B4F3"/>
<path d="M67.4082 10.7116H69.0182V11.3416C69.3682 10.9216 70.1382 10.4316 71.3982 10.4316C71.6782 10.4316 72.0282 10.4316 72.3082 10.5016V12.1116C72.0282 12.0416 71.6082 12.0416 71.2582 12.0416C70.0682 12.0416 69.0182 12.3916 69.0182 13.0916V19.6016H67.4082V10.7116Z" fill="#00B4F3"/>
<path d="M75.8074 12.1811V16.5211C75.8074 17.7811 76.1574 18.3411 77.2774 18.3411C77.8374 18.3411 78.3974 18.2711 78.8874 18.1311L79.1674 19.4611C78.6074 19.6711 77.6974 19.8111 76.9974 19.8111C75.0374 19.8111 74.1274 19.2511 74.1274 16.5911V12.1811H72.5874V10.7111H74.1274V9.03105L75.8074 8.33105V10.7111H78.8874V12.1811H75.8074Z" fill="#00B4F3"/>
<path d="M80.7793 11.13C81.7593 10.71 83.2993 10.5 84.4893 10.5C87.2893 10.5 88.6193 11.55 88.6193 15.12C88.6193 18.76 87.2893 19.81 84.6993 19.81C83.5793 19.81 82.8793 19.53 82.4593 19.18V22.89H80.8493V11.13H80.7793ZM82.3893 17.36C82.3893 18.06 83.2993 18.41 84.4893 18.41C86.3093 18.41 86.8693 17.71 86.8693 15.19C86.8693 12.46 86.3093 11.97 84.4893 11.97C83.7893 11.97 82.9493 12.04 82.3893 12.25V17.36Z" fill="#00B4F3"/>
<path d="M98.068 19.1787C97.018 19.5987 95.4779 19.8787 94.2879 19.8787C91.6279 19.8787 90.6479 19.2487 90.6479 16.9387C90.6479 14.4187 92.1179 13.9987 94.1479 13.9987C94.9879 13.9987 95.6879 14.0687 96.5279 14.2787C96.5279 12.4587 96.0379 12.0387 94.1479 12.0387C93.2379 12.0387 92.258 12.1787 91.558 12.4587L91.208 11.0587C91.978 10.8487 93.1679 10.6387 94.4279 10.6387C97.0179 10.6387 98.208 11.4087 98.208 14.0687V19.1787H98.068ZM96.458 15.4687C95.898 15.3287 95.1279 15.2587 94.4279 15.2587C92.9579 15.2587 92.3979 15.3987 92.3979 16.7987C92.3979 18.2687 92.818 18.5487 94.358 18.5487C95.058 18.5487 95.828 18.4087 96.458 18.1987V15.4687Z" fill="#00B4F3"/>
<path d="M107.237 19.3884C106.537 19.6684 105.417 19.8784 104.647 19.8784C101.917 19.8784 100.307 18.8284 100.307 15.1884C100.307 11.5484 101.917 10.5684 104.647 10.5684C105.417 10.5684 106.607 10.7784 107.237 10.9884L106.817 12.4584C106.257 12.1784 105.417 12.0384 104.717 12.0384C102.897 12.0384 102.057 12.4584 102.057 15.1884C102.057 17.7784 102.897 18.4084 104.717 18.4084C105.487 18.4084 106.257 18.1984 106.817 17.9884L107.237 19.3884Z" fill="#00B4F3"/>
<path d="M114.518 19.6C112.348 16.73 110.948 15.12 110.458 14.91V19.6H108.848V7H110.458V14.91C111.018 14.49 112.348 13.09 114.238 10.71H116.268C114.378 13.02 113.048 14.35 112.558 14.7C113.048 14.98 114.448 16.59 116.548 19.53H114.518V19.6Z" fill="#00B4F3"/>
</g>
<defs>
<linearGradient id="paint0_linear_7503_80999" x1="27.9648" y1="0.000976562" x2="27.9648" y2="14.001" gradientUnits="userSpaceOnUse">
<stop stop-color="#0280DD"/>
<stop offset="1" stop-color="#02B1F3"/>
</linearGradient>
<linearGradient id="paint1_linear_7503_80999" x1="33.8818" y1="21.001" x2="21.6318" y2="21.001" gradientUnits="userSpaceOnUse">
<stop stop-color="#0280DD"/>
<stop offset="1" stop-color="#02B1F3"/>
</linearGradient>
<linearGradient id="paint2_linear_7503_80999" x1="12.5295" y1="7.00195" x2="-0.000488281" y2="7.00195" gradientUnits="userSpaceOnUse">
<stop stop-color="#0280DD"/>
<stop offset="1" stop-color="#02B1F3"/>
</linearGradient>
<linearGradient id="paint3_linear_7503_80999" x1="12.233" y1="6.97156" x2="-0.157004" y2="6.97156" gradientUnits="userSpaceOnUse">
<stop stop-color="#0280DD"/>
<stop offset="1" stop-color="#02B1F3"/>
</linearGradient>
<clipPath id="clip0_7503_80999">
<rect width="124.6" height="28" fill="white"/>
</clipPath>
</defs>
</svg>
