<svg width="125" height="25" viewBox="0 0 125 25" fill="none" xmlns="http://www.w3.org/2000/svg">
<g clip-path="url(#clip0_7503_80982)">
<path fill-rule="evenodd" clip-rule="evenodd" d="M74.9584 15.5486L79.1185 13.8203C78.8874 13.2375 78.2041 12.8355 77.3902 12.8355C76.3502 12.8305 74.9082 13.7499 74.9585 15.5485L74.9584 15.5486ZM79.8421 17.2217L81.4297 18.2768C80.9172 19.0354 79.6863 20.3417 77.551 20.3417C74.9082 20.3417 72.999 18.2967 72.999 15.6893C72.999 12.921 74.9232 11.0369 77.3249 11.0369C79.7416 11.0369 80.9223 12.9561 81.3092 13.9961L81.5202 14.5237L75.3002 17.096C75.7775 18.0305 76.5161 18.5078 77.5561 18.5078C78.591 18.5079 79.3145 17.9954 79.8421 17.2217V17.2217ZM69.7585 20.0604H71.8032V6.38437L69.7585 6.38431V20.0604ZM66.4225 15.7044C66.4225 14.0665 65.3272 12.8656 63.9356 12.8656C62.5288 12.8656 61.3431 14.0664 61.3431 15.7044C61.3431 17.3272 62.5238 18.508 63.9356 18.508C65.3322 18.508 66.4225 17.3273 66.4225 15.7044ZM68.2211 11.3181V19.6735C68.2211 23.1101 66.1963 24.5219 63.7998 24.5219C61.5439 24.5219 60.1874 23.0046 59.675 21.7735L61.4536 21.035C61.7701 21.7936 62.5489 22.693 63.7998 22.693C65.3322 22.693 66.2868 21.7434 66.2868 19.9598V19.2916L66.2114 19.2916C65.7542 19.8543 64.8699 20.3517 63.7596 20.3517C61.4333 20.3517 59.2982 18.3269 59.2982 15.7142C59.2982 13.0866 61.4285 11.0417 63.7596 11.0417C64.8699 11.0417 65.7542 11.534 66.2114 12.0817L66.2817 12.0816V11.323C66.2817 11.318 68.2211 11.318 68.2211 11.318L68.2211 11.3181ZM45.9082 15.6892C45.9082 14.0161 44.7125 12.8706 43.3307 12.8706C41.9441 12.8706 40.7532 14.0161 40.7532 15.6892C40.7532 17.3472 41.949 18.5078 43.3307 18.5078C44.7124 18.5078 45.9082 17.3421 45.9082 15.6892ZM47.9179 15.6892C47.9179 18.3671 45.858 20.3416 43.3307 20.3416C40.8035 20.3416 38.7436 18.3671 38.7436 15.6892C38.7436 12.9911 40.8035 11.0368 43.3307 11.0368C45.858 11.0368 47.9179 12.9911 47.9179 15.6892ZM56.1878 15.6892C56.1878 14.0161 54.992 12.8706 53.6103 12.8706C52.2236 12.8706 51.0328 14.0161 51.0328 15.6892C51.0328 17.3472 52.2285 18.5078 53.6103 18.5078C54.992 18.5078 56.1878 17.3421 56.1878 15.6892ZM58.1974 15.6892C58.1974 18.3671 56.1375 20.3416 53.6103 20.3416C51.083 20.3416 49.0231 18.3671 49.0231 15.6892C49.0231 12.9911 51.083 11.0368 53.6103 11.0368C56.1375 11.0368 58.1974 12.9911 58.1974 15.6892ZM30.885 20.3416C26.9056 20.3416 23.5547 17.096 23.5547 13.1167C23.5547 9.13233 26.9058 5.88672 30.885 5.88672C33.0905 5.88672 34.6582 6.75087 35.8389 7.88138L34.4471 9.27313C33.6031 8.47931 32.4575 7.86132 30.8851 7.86132C27.9761 7.86132 25.7001 10.2076 25.7001 13.1116C25.7001 16.0206 27.9761 18.3618 30.8851 18.3618C32.7692 18.3618 33.8443 17.6032 34.5327 16.9149C35.0954 16.3521 35.4672 15.5382 35.6079 14.4279L30.8851 14.4279V12.4534H37.5271C37.5975 12.805 37.6327 13.2271 37.6327 13.6843C37.6327 15.1664 37.2257 17.0003 35.9244 18.3016C34.6583 19.633 33.0354 20.3413 30.8851 20.3413L30.885 20.3416Z" fill="#5F6368"/>
<path fill-rule="evenodd" clip-rule="evenodd" d="M86.3359 19.9317V7.78521L87.9046 7.78516L92.123 15.1832H92.1866L96.405 7.78516H97.9737V19.9316L96.405 19.9316V12.7243L96.4686 10.6894H96.405L92.6107 17.3455H91.6992L87.9049 10.6894H87.8413L87.9048 12.7243V19.9316L86.3359 19.9317Z" fill="#63666A"/>
<path fill-rule="evenodd" clip-rule="evenodd" d="M102.765 20.209C101.875 20.209 101.154 19.9546 100.56 19.4458C99.9667 18.9371 99.6699 18.2588 99.6699 17.432C99.6699 16.5205 100.03 15.821 100.73 15.3122C101.429 14.8034 102.298 14.5491 103.316 14.5491C104.227 14.5491 104.991 14.7187 105.563 15.0578V14.8247C105.563 14.2099 105.351 13.7224 104.927 13.362C104.503 13.0016 103.994 12.8109 103.38 12.8109C102.934 12.8109 102.511 12.9169 102.15 13.1288C101.79 13.3408 101.535 13.6376 101.387 14.0191L99.9668 13.4044C100.158 12.9169 100.539 12.4505 101.111 12.0266C101.684 11.6026 102.426 11.3906 103.358 11.3906C104.418 11.3906 105.309 11.7086 106.008 12.3233C106.708 12.9381 107.068 13.8284 107.068 14.9519V19.9757L105.584 19.9756V18.831H105.521C104.885 19.7213 103.973 20.2088 102.765 20.2088L102.765 20.209ZM103.019 18.7675C103.655 18.7675 104.249 18.5344 104.779 18.0468C105.309 17.5593 105.563 17.0081 105.563 16.351C105.118 15.9906 104.461 15.7998 103.57 15.7998C102.807 15.7998 102.235 15.9694 101.853 16.2874C101.472 16.6053 101.281 17.0081 101.281 17.432C101.281 17.8348 101.451 18.1528 101.811 18.4072C102.171 18.6616 102.574 18.7675 103.019 18.7675H103.019Z" fill="#63666A"/>
<path fill-rule="evenodd" clip-rule="evenodd" d="M113.152 20.2083C112.516 20.2083 111.943 20.0811 111.456 19.8055C110.968 19.5299 110.587 19.1908 110.332 18.788H110.248L110.311 19.9327V23.6L108.764 23.6V11.6232H110.248V12.7679H110.311C110.565 12.3651 110.926 12.026 111.435 11.7504C111.943 11.4749 112.516 11.3477 113.13 11.3477C114.211 11.3477 115.123 11.7716 115.907 12.6196C116.692 13.4674 117.073 14.5273 117.073 15.778C117.073 17.0287 116.692 18.0886 115.907 18.9365C115.144 19.7844 114.212 20.2083 113.152 20.2083L113.152 20.2083ZM112.897 18.7668C113.618 18.7668 114.233 18.4912 114.763 17.9401C115.293 17.389 115.547 16.6682 115.547 15.7568C115.547 14.8454 115.293 14.1246 114.763 13.5735C114.233 13.0224 113.618 12.7468 112.897 12.7468C112.155 12.7468 111.541 13.0224 111.032 13.5523C110.523 14.1034 110.269 14.8242 110.269 15.7356C110.269 16.6471 110.523 17.3891 111.032 17.9189C111.541 18.5125 112.155 18.7668 112.897 18.7668Z" fill="#63666A"/>
<path fill-rule="evenodd" clip-rule="evenodd" d="M121.609 20.2073C120.677 20.2073 119.913 19.9741 119.32 19.529C118.705 19.0838 118.281 18.5115 117.984 17.8331L119.383 17.2607C119.829 18.2995 120.571 18.8294 121.63 18.8294C122.118 18.8294 122.521 18.7234 122.818 18.5115C123.135 18.2995 123.284 18.0239 123.284 17.6636C123.284 17.1124 122.902 16.7521 122.139 16.5613L120.465 16.1585C119.935 16.0313 119.426 15.7557 118.96 15.3954C118.493 15.035 118.239 14.5051 118.239 13.8691C118.239 13.1272 118.557 12.5336 119.214 12.0885C119.871 11.6222 120.634 11.4102 121.525 11.4102C122.266 11.4102 122.924 11.5797 123.496 11.9189C124.068 12.2581 124.492 12.7244 124.725 13.3603L123.369 13.9115C123.072 13.1695 122.436 12.8092 121.461 12.8092C120.995 12.8092 120.613 12.9152 120.295 13.106C119.977 13.2967 119.829 13.5511 119.829 13.8902C119.829 14.3566 120.189 14.6958 120.931 14.8654L122.584 15.2469C123.369 15.4377 123.941 15.7345 124.323 16.1796C124.704 16.6248 124.874 17.1123 124.874 17.6635C124.874 18.4054 124.577 19.0413 123.962 19.5289C123.369 19.9529 122.584 20.2073 121.609 20.2073H121.609Z" fill="#63666A"/>
<path fill-rule="evenodd" clip-rule="evenodd" d="M4.59766 18.2663C5.33692 19.1909 6.08987 20.3496 6.48391 21.0519C6.96375 21.9648 7.16271 22.5812 7.51967 23.6774C7.72841 24.2821 7.92735 24.4655 8.34478 24.4655C8.80123 24.4655 9.00993 24.1573 9.16988 23.6774C9.50344 22.6416 9.76092 21.8536 10.1686 21.1006C10.9703 19.6591 11.9807 18.3755 12.9678 17.1428C13.2389 16.7975 14.9653 14.763 15.7416 13.1479C15.7416 13.1479 16.6916 11.3845 16.6916 8.91889C16.6916 6.61332 15.7553 5.01172 15.7553 5.01172L13.0438 5.73932L11.3916 10.0795L10.984 10.6705L10.8982 10.7817L10.787 10.9182L10.6017 11.1406L10.3305 11.4117L8.86364 12.6075L5.20235 14.7278L4.59766 18.2663Z" fill="#34A853"/>
<path fill-rule="evenodd" clip-rule="evenodd" d="M0.8125 12.8517C1.71175 14.898 3.42629 16.6867 4.59663 18.2647L10.7976 10.9167C10.7976 10.9167 9.92182 12.0637 8.34372 12.0637C6.58036 12.0637 5.15052 10.6593 5.15052 8.88222C5.15052 7.6611 5.87809 6.82422 5.87809 6.82422L1.67461 7.94582L0.8125 12.8517Z" fill="#FBBC04"/>
<path fill-rule="evenodd" clip-rule="evenodd" d="M10.8725 0.90625C12.9305 1.5714 14.6937 2.96424 15.755 5.02396L10.7985 10.9285C10.7985 10.9285 11.5261 10.078 11.5261 8.87068C11.5261 7.05854 9.99679 5.68917 8.34457 5.68917C6.77822 5.68917 5.87894 6.82247 5.87894 6.82247L5.87891 3.1007L10.8725 0.90625Z" fill="#4285F4"/>
<path fill-rule="evenodd" clip-rule="evenodd" d="M1.94531 3.50983C3.17811 2.04296 5.33542 0.527344 8.31789 0.527344C9.7594 0.527344 10.8576 0.909673 10.8576 0.909673L5.8776 6.82782L2.35084 6.8278L1.94531 3.50983Z" fill="#1A73E8"/>
<path fill-rule="evenodd" clip-rule="evenodd" d="M0.813424 12.8514C0.813424 12.8514 0 11.2363 0 8.9072C0 6.70104 0.862191 4.77778 1.96029 3.51953L5.89278 6.83558L0.813424 12.8514Z" fill="#EA4335"/>
</g>
<defs>
<clipPath id="clip0_7503_80982">
<rect width="124.874" height="24" fill="white" transform="translate(0 0.523438)"/>
</clipPath>
</defs>
</svg>
