<svg width="24" height="24" viewBox="0 0 24 24" fill="none" xmlns="http://www.w3.org/2000/svg">
<g clip-path="url(#clip0_7503_80950)">
<path d="M17.4008 14.1609C21.0308 14.1609 24.0008 11.2041 24.0008 7.56094C24.0008 3.91774 21.0308 0.960938 17.4008 0.960938C13.7576 0.960938 10.8008 3.91774 10.8008 7.56094C10.8008 11.2041 13.7576 14.1609 17.4008 14.1609Z" fill="#299400"/>
<path d="M17.4655 3.20312C19.6672 3.20312 21.1615 4.87953 21.1615 6.68793C21.1615 7.41393 21.0015 8.04752 20.628 8.83952C18.4396 8.83952 18.0393 10.2783 17.9457 11.2419L17.8797 12.0471H17.0519L16.9854 11.2419C16.8919 10.2783 16.4915 8.83952 14.3031 8.83952C13.9296 8.04752 13.7695 7.41393 13.7695 6.68793C13.7695 4.87953 15.2639 3.20312 17.4655 3.20312Z" fill="white"/>
<path d="M10.2606 8.39844C9.01473 8.3991 7.79699 8.76534 6.7612 9.45096C5.72543 10.1365 4.91806 11.1107 4.4411 12.2504C3.96415 13.3902 3.83899 14.6442 4.08144 15.8544C4.32387 17.0645 4.92306 18.1764 5.80328 19.0494C6.94457 20.1796 9.63045 21.8144 9.78939 23.5319C9.81315 23.7884 10.0015 23.9984 10.2606 23.9984C10.5197 23.9984 10.7088 23.7884 10.7318 23.5319C10.8908 21.8144 13.5745 20.1823 14.7151 19.0529C15.5964 18.1801 16.1965 17.0683 16.4397 15.8579C16.683 14.6474 16.5583 13.3927 16.0815 12.2524C15.6048 11.1121 14.7974 10.1373 13.7613 9.45132C12.7251 8.76534 11.507 8.39898 10.2606 8.39844ZM10.2606 16.7732C9.97749 16.7732 9.69711 16.7179 9.43557 16.6106C9.17403 16.5034 8.93637 16.3462 8.73615 16.1479C8.53599 15.9497 8.37717 15.7144 8.26887 15.4554C8.16051 15.1964 8.10475 14.9188 8.10475 14.6384C8.10475 14.3581 8.16051 14.0806 8.26887 13.8215C8.37717 13.5625 8.53599 13.3271 8.73615 13.1288C8.93637 12.9307 9.17403 12.7734 9.43557 12.6661C9.69711 12.5588 9.97749 12.5036 10.2606 12.5036C10.8324 12.5036 11.3808 12.7285 11.7851 13.1288C12.1893 13.5293 12.4165 14.0723 12.4165 14.6384C12.4165 15.2046 12.1893 15.7476 11.7851 16.1479C11.3808 16.5482 10.8324 16.7732 10.2606 16.7732Z" fill="#FF4433"/>
<path d="M11.6083 6.11736C11.6083 5.71114 11.5753 5.30194 11.5051 4.90234H5.86328V7.20576H9.09366C9.02748 7.57368 8.8875 7.92438 8.68206 8.23674C8.47662 8.5491 8.2101 8.81664 7.89846 9.02316V10.5172H9.82566C10.9579 9.47616 11.6077 7.93716 11.6077 6.11736H11.6083Z" fill="#2A84FC"/>
<path d="M5.98212 11.9637C7.5949 11.9637 8.9557 11.4345 9.9469 10.5201L8.0191 9.02551C7.4827 9.39031 6.7909 9.59671 5.98392 9.59671C4.42392 9.59671 3.10032 8.54431 2.62572 7.12891H0.636719V8.66971C1.13492 9.66019 1.8986 10.4927 2.8425 11.0744C3.78641 11.656 4.87339 11.9639 5.98212 11.9637Z" fill="#00AC47"/>
<path d="M2.62358 7.12849C2.373 6.38563 2.373 5.58112 2.62358 4.83828V3.29688H0.636384C0.21792 4.13037 0 5.05012 0 5.98277C0 6.91543 0.21792 7.83517 0.636384 8.66869L2.62358 7.12789V7.12849Z" fill="#FFBA00"/>
<path d="M5.98212 2.36741C6.83494 2.3536 7.65898 2.67554 8.2765 3.26382L9.9841 1.55621C8.90116 0.540178 7.46698 -0.0173534 5.98212 0.00041188C4.87315 0.000125437 3.78595 0.308201 2.842 0.890214C1.89804 1.47223 1.13451 2.30526 0.636719 3.29622L2.62392 4.83822C3.09612 3.42042 4.42152 2.36802 5.98212 2.36802V2.36741Z" fill="#FC2C25"/>
</g>
<defs>
<clipPath id="clip0_7503_80950">
<rect width="24" height="24" fill="white"/>
</clipPath>
</defs>
</svg>
