<svg width="95" height="30" viewBox="0 0 95 30" fill="none" xmlns="http://www.w3.org/2000/svg">
<g clip-path="url(#clip0_7503_81062)">
<g clip-path="url(#clip1_7503_81062)">
<path d="M6.25953 20.6511C4.96822 20.6511 3.91104 20.126 3.08801 19.0759V24.3122H0.384766V10.1148H3.08801V11.4132C3.89685 10.3773 4.95403 9.85938 6.25953 9.85938C7.6076 9.85938 8.70022 10.3418 9.53744 11.3068C10.3889 12.2575 10.8146 13.5701 10.8146 15.2446C10.8146 16.919 10.3889 18.2387 9.53744 19.2036C8.70022 20.1686 7.6076 20.6511 6.25953 20.6511ZM5.40812 18.2458C6.18858 18.2458 6.81295 17.9691 7.28123 17.4157C7.7637 16.8623 8.00495 16.1385 8.00495 15.2446C8.00495 14.3648 7.7637 13.6482 7.28123 13.0947C6.81295 12.5413 6.18858 12.2646 5.40812 12.2646C4.96822 12.2646 4.52832 12.3781 4.08843 12.6051C3.64853 12.8322 3.31506 13.1089 3.08801 13.4353V17.0751C3.31506 17.4015 3.64853 17.6782 4.08843 17.9052C4.54251 18.1323 4.9824 18.2458 5.40812 18.2458Z" fill="#273D94"/>
<path d="M15.4982 20.3951H12.7949V10.1143H15.4982V20.3951Z" fill="#273D94"/>
<path d="M22.9647 20.6511C21.3754 20.6511 20.0699 20.1473 19.0482 19.1398C18.0265 18.1323 17.5156 16.8339 17.5156 15.2446C17.5156 13.6694 18.0265 12.3781 19.0482 11.3707C20.0699 10.3631 21.3754 9.85938 22.9647 9.85938C24.7811 9.85938 26.1362 10.4766 27.0302 11.7112L25.2635 13.3715C24.7668 12.6336 24.0431 12.2646 23.0924 12.2646C22.2693 12.2646 21.5954 12.5413 21.0703 13.0947C20.5595 13.6339 20.304 14.3505 20.304 15.2446C20.304 16.1385 20.5595 16.8623 21.0703 17.4157C21.5954 17.9691 22.2693 18.2458 23.0924 18.2458C24.0147 18.2458 24.7385 17.8768 25.2635 17.139L27.0302 18.778C26.1362 20.0267 24.7811 20.6511 22.9647 20.6511Z" fill="#273D94"/>
<path d="M38.8456 20.3946H35.4612L32.7366 16.4355L31.5021 17.7552V20.3946H28.7988V6.19727H31.5021V14.6901L35.3973 10.1138H38.7179L34.6523 14.7752L38.8456 20.3946Z" fill="#273D94"/>
<path d="M45.6203 20.3946H42.5764V8.85791H38.4258V6.19727H49.7496V8.85791H45.6203V20.3946Z" fill="#273D94"/>
<path d="M54.3764 20.6511C52.787 20.6511 51.4744 20.1544 50.4386 19.1611C49.4027 18.1677 48.8848 16.8623 48.8848 15.2446C48.8848 13.7262 49.3815 12.4491 50.3747 11.4132C51.3823 10.3773 52.6593 9.85938 54.2061 9.85938C55.7386 9.85938 56.9803 10.3844 57.9311 11.4345C58.8818 12.4704 59.3571 13.8326 59.3571 15.5213V16.1172H51.7157C51.8008 16.7984 52.1059 17.366 52.631 17.8201C53.156 18.2742 53.8372 18.5012 54.6744 18.5012C55.1285 18.5012 55.618 18.409 56.1431 18.2245C56.6823 18.04 57.108 17.7917 57.4202 17.4795L58.6122 19.2249C57.5763 20.1757 56.1644 20.6511 54.3764 20.6511ZM56.7391 14.2867C56.6965 13.7049 56.4624 13.1799 56.0366 12.7116C55.6252 12.2433 55.015 12.0092 54.2061 12.0092C53.4398 12.0092 52.8439 12.2433 52.4182 12.7116C51.9924 13.1657 51.7441 13.6907 51.6731 14.2867H56.7391Z" fill="#273D94"/>
<path d="M66.0994 20.6511C64.5101 20.6511 63.2046 20.1473 62.1829 19.1398C61.1612 18.1323 60.6504 16.8339 60.6504 15.2446C60.6504 13.6694 61.1612 12.3781 62.1829 11.3707C63.2046 10.3631 64.5101 9.85938 66.0994 9.85938C67.9158 9.85938 69.271 10.4766 70.1649 11.7112L68.3982 13.3715C67.9016 12.6336 67.1779 12.2646 66.2271 12.2646C65.4041 12.2646 64.7301 12.5413 64.205 13.0947C63.6942 13.6339 63.4387 14.3505 63.4387 15.2446C63.4387 16.1385 63.6942 16.8623 64.205 17.4157C64.7301 17.9691 65.4041 18.2458 66.2271 18.2458C67.1495 18.2458 67.8732 17.8768 68.3982 17.139L70.1649 18.778C69.271 20.0267 67.9158 20.6511 66.0994 20.6511Z" fill="#273D94"/>
<path d="M81.5932 20.3946H78.89V14.1367C78.89 13.4556 78.7268 12.9731 78.4004 12.6893C78.0741 12.4055 77.5987 12.2636 76.9743 12.2636C76.0236 12.2636 75.2431 12.668 74.6329 13.4769V20.3946H71.9297V6.19727H74.6329V11.4547C75.0018 11.0149 75.4985 10.6388 76.1229 10.3266C76.7615 10.0144 77.471 9.85836 78.2514 9.85836C79.3583 9.85836 80.1883 10.1421 80.7418 10.7097C81.3094 11.2774 81.5932 12.072 81.5932 13.0937V20.3946Z" fill="#273D94"/>
<path d="M15.2603 8.51918C14.9417 8.83787 14.5633 8.99722 14.1251 8.99722C13.6869 8.99722 13.3085 8.83787 12.9898 8.51918C12.6711 8.20049 12.5117 7.82205 12.5117 7.38386C12.5117 6.94568 12.6711 6.56724 12.9898 6.24855C13.3085 5.92986 13.6869 5.77051 14.1251 5.77051C14.5633 5.77051 14.9417 5.92986 15.2603 6.24855C15.579 6.56724 15.7383 6.94568 15.7383 7.38386C15.7383 7.82205 15.579 8.20049 15.2603 8.51918Z" fill="#F89D46"/>
<path d="M90.0955 18.8914C89.522 19.4648 88.8414 19.7514 88.0531 19.7514C87.2646 19.7514 86.5838 19.4648 86.0104 18.8914C85.4371 18.318 85.1504 17.6372 85.1504 16.8488C85.1504 16.0605 85.4371 15.3797 86.0104 14.8063C86.5838 14.233 87.2646 13.9463 88.0531 13.9463C88.8414 13.9463 89.522 14.233 90.0955 14.8063C90.6691 15.3797 90.9555 16.0605 90.9555 16.8488C90.9555 17.6372 90.6691 18.318 90.0955 18.8914Z" fill="#F89D46"/>
</g>
</g>
<defs>
<clipPath id="clip0_7503_81062">
<rect width="95" height="30" fill="white"/>
</clipPath>
<clipPath id="clip1_7503_81062">
<rect width="91.9141" height="34.4678" fill="white" transform="translate(-0.957031 -3.46777)"/>
</clipPath>
</defs>
</svg>
