<svg width="24" height="24" viewBox="0 0 24 24" fill="none" xmlns="http://www.w3.org/2000/svg">
<g clip-path="url(#clip0_7601_81611)">
<g clip-path="url(#clip1_7601_81611)">
<path d="M17.5063 14.2597C13.3945 14.2806 12.7294 16.8482 12.5077 19.0192L12.4069 19.9794H11.5805L11.4797 19.0192C11.2581 16.8482 10.5728 14.2806 6.60207 14.2597C5.93695 12.8402 5.65477 11.6921 5.65477 10.3978C5.65477 7.16232 8.21456 4.13539 12.0037 4.13539C15.793 4.13539 18.3125 7.14133 18.3125 10.4188C18.3125 11.6921 18.1916 12.8402 17.5063 14.2597ZM11.9635 0.210938C5.71529 0.210938 0.595703 5.51317 0.595703 12.0051C0.595703 18.5181 5.71529 23.8203 11.9635 23.8203C18.2722 23.8203 23.3716 18.5181 23.3716 12.0051C23.3716 5.51319 18.2722 0.210938 11.9635 0.210938Z" fill="#299400"/>
</g>
</g>
<defs>
<clipPath id="clip0_7601_81611">
<rect width="24" height="24" fill="white"/>
</clipPath>
<clipPath id="clip1_7601_81611">
<rect width="72.9232" height="23.6094" fill="white" transform="translate(0.603516 0.195312)"/>
</clipPath>
</defs>
</svg>
