<svg width="106" height="24" viewBox="0 0 106 24" fill="none" xmlns="http://www.w3.org/2000/svg">
<path d="M1.34375 8.86162L10.7481 8.8635L16.4666 8.86447V3.19922L1.34375 8.86162Z" fill="#FF9D28"/>
<path d="M16.4668 3.19856V23.1998L23.6091 0.523438L16.4668 3.19856Z" fill="#68C5ED"/>
<path d="M16.4665 8.86426L10.748 8.86328L16.4665 23.2002V8.86426Z" fill="#044D80"/>
<path d="M1.34375 8.86133L12.2145 12.5419L10.7481 8.86321L1.34375 8.86133Z" fill="#E54747"/>
<path d="M35.9874 17.9348C35.9045 18.0177 35.7663 18.1212 35.5731 18.2454C35.3796 18.3698 35.1278 18.4941 34.8171 18.6185C34.5064 18.7426 34.1264 18.8494 33.6778 18.9395C33.2288 19.0291 32.7146 19.0741 32.1347 19.0741C31.016 19.0741 30.0493 18.8944 29.2346 18.5356C28.4196 18.1768 27.7465 17.6758 27.215 17.0338C26.6833 16.3916 26.2933 15.6323 26.0447 14.7552C25.7961 13.8783 25.6719 12.9152 25.6719 11.8656C25.6719 10.8163 25.8065 9.84599 26.0758 8.9553C26.345 8.06455 26.7489 7.29498 27.2875 6.64563C27.8261 5.99676 28.4993 5.48919 29.3072 5.12312C30.115 4.75746 31.0643 4.57422 32.1553 4.57422C32.6939 4.57422 33.1807 4.62271 33.6157 4.7192C34.0507 4.8159 34.4303 4.92992 34.755 5.06099C35.0793 5.19241 35.3487 5.33022 35.5629 5.47527C35.7768 5.62025 35.939 5.74137 36.0497 5.83772C36.1739 5.94848 36.2808 6.07955 36.3708 6.23127C36.4604 6.38342 36.5054 6.54913 36.5054 6.72848C36.5054 7.00488 36.4018 7.28093 36.1947 7.55704C35.9876 7.83344 35.7597 8.0889 35.511 8.32348C35.3453 8.15777 35.1589 7.98886 34.9518 7.81605C34.7447 7.64345 34.5133 7.49172 34.2579 7.3603C34.0022 7.22924 33.7122 7.11883 33.3879 7.02888C33.0633 6.9392 32.7008 6.89419 32.3004 6.89419C31.5961 6.89419 31.0058 7.03597 30.5294 7.31884C30.053 7.60205 29.6697 7.97133 29.3797 8.42707C29.0898 8.88281 28.8826 9.40416 28.7583 9.99097C28.634 10.5781 28.5719 11.1752 28.5719 11.7828C28.5719 12.432 28.634 13.0534 28.7583 13.6469C28.8825 14.2408 29.0965 14.7657 29.4005 15.2212C29.704 15.6769 30.1012 16.043 30.5915 16.319C31.0815 16.5955 31.6925 16.7334 32.4247 16.7334C32.8111 16.7334 33.1668 16.6851 33.4915 16.5884C33.8157 16.4919 34.1025 16.3744 34.351 16.2361C34.5996 16.0983 34.8171 15.9534 35.0035 15.8013C35.19 15.6494 35.3453 15.5184 35.4696 15.4077C35.5525 15.5045 35.6489 15.622 35.7596 15.7599C35.8709 15.8992 35.9746 16.0444 36.0703 16.1949C36.1668 16.347 36.2496 16.4988 36.3189 16.6504C36.3878 16.8026 36.4224 16.9405 36.4224 17.0646C36.4224 17.2444 36.3878 17.3962 36.3189 17.5205C36.2496 17.6448 36.1392 17.783 35.9874 17.9348ZM46.6622 16.3461C46.6622 17.4437 46.8218 18.2426 47.1415 18.7427C46.8915 18.8398 46.6587 18.9093 46.4434 18.951C46.2279 18.9927 46.0022 19.0135 45.7661 19.0135C45.2661 19.0135 44.8873 18.9162 44.6305 18.7218C44.3733 18.5275 44.2101 18.2496 44.1408 17.8882C43.835 18.2081 43.4322 18.4788 42.9321 18.7012C42.432 18.923 41.8205 19.0345 41.0983 19.0345C40.7232 19.0345 40.3481 18.9824 39.973 18.8789C39.5978 18.7746 39.2574 18.6052 38.9518 18.3701C38.6461 18.1345 38.3961 17.8194 38.2017 17.4247C38.0069 17.0299 37.9099 16.5488 37.9099 15.9811C37.9099 15.2749 38.0799 14.6999 38.4205 14.257C38.7608 13.8136 39.1879 13.464 39.7021 13.2078C40.216 12.9517 40.7717 12.7755 41.3693 12.6783C41.9664 12.5813 42.5154 12.5192 43.0155 12.4911C43.1823 12.4774 43.3454 12.4703 43.5052 12.4703H43.9532V12.091C43.9532 11.557 43.8106 11.1776 43.526 10.953C43.2411 10.7283 42.7791 10.6156 42.1402 10.6156C41.5428 10.6156 41.0113 10.713 40.5461 10.9073C40.0804 11.1021 39.6255 11.3241 39.1811 11.5742C38.9864 11.3381 38.83 11.0777 38.7122 10.7928C38.5941 10.5082 38.5351 10.2962 38.5351 10.1572C38.5351 9.9628 38.6425 9.77524 38.8581 9.5945C39.0734 9.41418 39.3687 9.25069 39.7438 9.10481C40.119 8.95892 40.5494 8.84107 41.0359 8.75056C41.522 8.66033 42.0361 8.61511 42.5779 8.61511C43.3281 8.61511 43.9637 8.69164 44.4846 8.84434C45.0056 8.99739 45.4293 9.23344 45.7558 9.55283C46.0821 9.87264 46.3149 10.2718 46.4539 10.7511C46.5926 11.2304 46.6623 11.7898 46.6623 12.4286L46.6622 16.3461ZM43.9948 13.9289H43.7031C43.6057 13.9289 43.5084 13.9361 43.4114 13.9498C43.0639 13.9778 42.72 14.0194 42.3799 14.0747C42.0393 14.1304 41.7371 14.2277 41.4734 14.3666C41.2093 14.5056 40.9941 14.6863 40.8274 14.9083C40.6606 15.1307 40.5773 15.4157 40.5773 15.7628C40.5773 16.1518 40.6883 16.4816 40.9107 16.7526C41.1327 17.0235 41.5078 17.159 42.036 17.159C42.2997 17.159 42.5499 17.1245 42.7862 17.0546C43.0223 16.9855 43.2306 16.8951 43.4114 16.7839C43.5918 16.6728 43.7344 16.5513 43.8386 16.4191C43.9427 16.2873 43.9948 16.1658 43.9948 16.0546L43.9948 13.9289ZM51.8508 9.82366C52.0722 9.55993 52.4187 9.29229 52.8895 9.02133C53.3603 8.75042 53.9558 8.61497 54.6761 8.61497C55.1886 8.61497 55.6767 8.70187 56.1408 8.87544C56.6044 9.04929 57.0166 9.3307 57.3767 9.71945C57.7369 10.1085 58.0242 10.6227 58.239 11.2615C58.4536 11.9007 58.561 12.6858 58.561 13.6163C58.561 14.6999 58.4362 15.5927 58.187 16.2941C57.9376 16.9959 57.6158 17.5516 57.2213 17.9613C56.8266 18.3711 56.3866 18.6594 55.9021 18.8261C55.4173 18.9927 54.9325 19.0762 54.4479 19.0762C54.0463 19.0762 53.6964 19.031 53.3989 18.9408C53.101 18.8503 52.8483 18.7499 52.6405 18.6386C52.4328 18.5275 52.2736 18.4166 52.163 18.3051C52.0522 18.1941 51.9828 18.1175 51.9552 18.0758V23.1984H49.1211V8.90668C49.1908 8.89304 49.2748 8.87906 49.3731 8.86507C49.4572 8.85144 49.5551 8.84093 49.6671 8.83377C49.7791 8.82695 49.9121 8.8234 50.066 8.8234C50.5277 8.8234 50.9197 8.89993 51.2417 9.05263C51.5636 9.20568 51.7668 9.46253 51.8508 9.82366ZM55.6019 13.6787C55.6019 13.262 55.5673 12.8733 55.4983 12.5119C55.4293 12.1508 55.3153 11.8382 55.1564 11.5741C54.9975 11.3103 54.7832 11.1053 54.514 10.9593C54.2443 10.8135 53.9165 10.7406 53.5299 10.7406C52.9498 10.7406 52.5457 10.852 52.3177 11.0739C52.0898 11.2964 51.9759 11.5396 51.9759 11.8034V16.2213C52.0862 16.3326 52.2828 16.4643 52.5661 16.6172C52.8495 16.7702 53.1773 16.8463 53.5504 16.8463C54.255 16.8463 54.773 16.5687 55.1046 16.0128C55.4362 15.4573 55.6019 14.6791 55.6019 13.6787ZM60.7484 17.2632C60.651 16.9855 60.5885 16.6936 60.5609 16.3879C60.5329 16.0824 60.5192 15.7769 60.5192 15.4708V5.80169C60.6162 5.78805 60.7205 5.77407 60.8318 5.76002C60.9287 5.74638 61.0329 5.73602 61.1443 5.72878C61.2554 5.72196 61.3664 5.71841 61.4776 5.71841C61.6998 5.71841 61.9222 5.73928 62.1446 5.78089C62.3666 5.82263 62.5681 5.90597 62.749 6.03092C62.9294 6.15593 63.0752 6.32631 63.1865 6.54148C63.2976 6.757 63.3532 7.03841 63.3532 7.38542V8.86493H66.2708V10.9698H63.3532V15.4136C63.3532 16.3827 63.7491 16.8671 64.5411 16.8671C64.7355 16.8671 64.9194 16.836 65.0933 16.7734C65.2669 16.7109 65.4231 16.6415 65.5622 16.5651C65.701 16.4887 65.8227 16.4088 65.9269 16.3254C66.0311 16.242 66.104 16.1796 66.1456 16.1379C66.354 16.4437 66.5136 16.7085 66.6249 16.9318C66.736 17.1555 66.7916 17.3654 66.7916 17.5615C66.7916 17.744 66.7189 17.9229 66.5728 18.0981C66.4268 18.2733 66.2218 18.4348 65.958 18.5819C65.694 18.7291 65.3747 18.8482 64.9995 18.9394C64.6244 19.0307 64.2144 19.0763 63.77 19.0763C62.9084 19.0763 62.2382 18.9095 61.759 18.5762C61.2797 18.2426 60.9427 17.8049 60.7484 17.2632ZM73.4486 16.9922C73.797 16.9922 74.1037 16.9542 74.3688 16.8776C74.6335 16.8015 74.8705 16.7076 75.0797 16.5964C75.2887 16.4854 75.4701 16.3638 75.6235 16.2318C75.7768 16.0999 75.9161 15.9783 76.0419 15.867C76.2089 16.0752 76.3831 16.3429 76.5645 16.6691C76.7456 16.9959 76.8364 17.2632 76.8364 17.4715C76.8364 17.7772 76.6625 18.0551 76.3155 18.3051C76.0237 18.5275 75.6101 18.7186 75.0756 18.8781C74.5405 19.0377 73.9118 19.1178 73.1896 19.1178C72.5363 19.1178 71.8939 19.0345 71.262 18.8677C70.6298 18.7011 70.067 18.4093 69.5741 17.9924C69.0807 17.5758 68.6813 17.0167 68.3757 16.315C68.0701 15.6135 67.9173 14.728 67.9173 13.658C67.9173 12.7827 68.0528 12.0293 68.3235 11.397C68.5946 10.765 68.9556 10.2405 69.4075 9.82373C69.8586 9.40694 70.3692 9.10154 70.939 8.90675C71.5084 8.71244 72.0921 8.61504 72.6895 8.61504C73.4674 8.61504 74.1273 8.73686 74.6691 8.97972C75.211 9.22293 75.6518 9.54949 75.9924 9.95918C76.3326 10.369 76.5792 10.8379 76.7321 11.3658C76.8848 11.8939 76.9614 12.4494 76.9614 13.0329V13.3246C76.9614 13.436 76.9578 13.5538 76.9509 13.6788C76.9438 13.804 76.937 13.9257 76.9302 14.0435C76.923 14.1618 76.9125 14.2555 76.899 14.3249H70.7514C70.8071 15.089 71.0441 15.7245 71.4622 16.2318C71.8801 16.739 72.5424 16.9922 73.4486 16.9922ZM74.3982 12.7619C74.3982 12.0951 74.2688 11.5533 74.0103 11.1365C73.7518 10.7198 73.287 10.5113 72.6167 10.5113C72.0436 10.5113 71.5861 10.7093 71.2439 11.1053C70.9013 11.5012 70.7305 12.0534 70.7305 12.7618L74.3982 12.7619ZM81.8934 9.87632C81.9766 9.75235 82.0877 9.61461 82.2267 9.46281C82.3655 9.31115 82.5358 9.17333 82.7373 9.04936C82.9386 8.92532 83.1609 8.82173 83.4042 8.73908C83.647 8.65637 83.9076 8.61504 84.1857 8.61504C84.3523 8.61504 84.5295 8.62903 84.717 8.65637C84.9046 8.68406 85.0781 8.73582 85.2379 8.81137C85.3975 8.88727 85.5262 8.99044 85.6235 9.12136C85.7205 9.25229 85.7694 9.41411 85.7694 9.60688C85.7694 9.90999 85.6928 10.2581 85.5402 10.6511C85.3871 11.0445 85.2345 11.3798 85.0818 11.6576C84.8453 11.4631 84.6092 11.3138 84.3731 11.2095C84.1368 11.1054 83.859 11.0532 83.5396 11.0532C83.1089 11.0532 82.7477 11.1786 82.4561 11.4293C82.1641 11.68 82.0183 11.9796 82.0183 12.3279V19.0739H79.1844V8.90668C79.2537 8.89304 79.337 8.87906 79.4343 8.86507C79.5177 8.85144 79.6149 8.84093 79.7261 8.83377C79.8372 8.82695 79.969 8.8234 80.122 8.8234C80.5665 8.8234 80.952 8.9096 81.2786 9.08164C81.6048 9.25348 81.81 9.51853 81.8934 9.87632ZM89.951 9.87632C90.0343 9.75235 90.1454 9.61461 90.2844 9.46281C90.4232 9.31115 90.5935 9.17333 90.795 9.04936C90.9963 8.92532 91.2186 8.82173 91.4618 8.73908C91.7048 8.65637 91.9652 8.61504 92.2433 8.61504C92.4099 8.61504 92.587 8.62903 92.7746 8.65637C92.9621 8.68406 93.1357 8.73582 93.2956 8.81137C93.4552 8.88727 93.5837 8.99044 93.6813 9.12136C93.7783 9.25229 93.8271 9.41411 93.8271 9.60688C93.8271 9.90999 93.7504 10.2581 93.5979 10.6511C93.4447 11.0445 93.292 11.3798 93.1393 11.6576C92.9031 11.4631 92.6668 11.3138 92.4308 11.2095C92.1945 11.1054 91.9167 11.0532 91.5973 11.0532C91.1666 11.0532 90.8054 11.1786 90.5137 11.4293C90.2219 11.68 90.0761 11.9796 90.0761 12.3279V19.0739H87.242V8.90668C87.3114 8.89304 87.3947 8.87906 87.4921 8.86507C87.5755 8.85144 87.6726 8.84093 87.7838 8.83377C87.8948 8.82695 88.0267 8.8234 88.1796 8.8234C88.6243 8.8234 89.0097 8.9096 89.3362 9.08164C89.6624 9.25348 89.8675 9.51853 89.951 9.87632ZM103.476 16.3461C103.476 17.4437 103.635 18.2426 103.955 18.7427C103.705 18.8398 103.472 18.9093 103.257 18.951C103.041 18.9927 102.816 19.0135 102.58 19.0135C102.079 19.0135 101.701 18.9162 101.444 18.7218C101.187 18.5275 101.023 18.2496 100.954 17.8882C100.648 18.2081 100.246 18.4788 99.7454 18.7012C99.2454 18.923 98.6338 19.0345 97.9117 19.0345C97.5365 19.0345 97.1615 18.9824 96.7863 18.8789C96.4112 18.7746 96.0705 18.6052 95.7652 18.3701C95.4594 18.1345 95.2094 17.8194 95.015 17.4247C94.8203 17.0299 94.7233 16.5488 94.7233 15.9811C94.7233 15.2749 94.8932 14.6999 95.2339 14.257C95.5741 13.8136 96.0014 13.464 96.5155 13.2078C97.0293 12.9517 97.585 12.7755 98.1826 12.6783C98.7797 12.5813 99.3287 12.5192 99.8288 12.4911C99.9956 12.4774 100.159 12.4703 100.319 12.4703H100.767V12.091C100.767 11.557 100.624 11.1776 100.339 10.953C100.054 10.7283 99.5924 10.6156 98.9535 10.6156C98.3561 10.6156 97.8248 10.713 97.3594 10.9073C96.8938 11.1021 96.439 11.3241 95.9944 11.5742C95.7998 11.3381 95.6433 11.0777 95.5255 10.7928C95.4075 10.5082 95.3485 10.2962 95.3485 10.1572C95.3485 9.9628 95.4559 9.77524 95.6715 9.5945C95.8867 9.41418 96.1821 9.25069 96.5571 9.10481C96.9323 8.95892 97.3627 8.84107 97.8491 8.75056C98.3353 8.66033 98.8494 8.61511 99.3912 8.61511C100.141 8.61511 100.777 8.69164 101.298 8.84434C101.819 8.99739 102.243 9.23344 102.569 9.55283C102.895 9.87264 103.128 10.2718 103.267 10.7511C103.406 11.2304 103.476 11.7898 103.476 12.4286V16.3461ZM100.808 13.9289H100.516C100.419 13.9289 100.322 13.9361 100.225 13.9498C99.8774 13.9778 99.5334 14.0194 99.1932 14.0747C98.8526 14.1304 98.5505 14.2277 98.2867 14.3666C98.0227 14.5056 97.8074 14.6863 97.6407 14.9083C97.474 15.1307 97.3906 15.4157 97.3906 15.7628C97.3906 16.1518 97.5017 16.4816 97.724 16.7526C97.9461 17.0235 98.3214 17.159 98.8494 17.159C99.1132 17.159 99.3633 17.1245 99.5996 17.0546C99.8357 16.9855 100.044 16.8951 100.225 16.7839C100.405 16.6728 100.548 16.5513 100.652 16.4191C100.756 16.2873 100.808 16.1658 100.808 16.0546L100.808 13.9289Z" fill="#044D80"/>
</svg>
