<svg width="98" height="28" viewBox="0 0 98 28" fill="none" xmlns="http://www.w3.org/2000/svg">
<g clip-path="url(#clip0_7801_81592)">
<path d="M25.6825 10.5068H35.5775V12.353H31.6868V22.7311H29.5473V12.353H25.6738V10.5068H25.6825ZM35.1548 13.8799H36.9837V15.5881H37.0182C37.0786 15.3465 37.1907 15.1136 37.3546 14.8893C37.5185 14.665 37.717 14.4493 37.9499 14.2682C38.1828 14.0784 38.4416 13.9317 38.7263 13.8109C39.011 13.6988 39.3043 13.6384 39.5976 13.6384C39.8219 13.6384 39.9858 13.647 40.0721 13.6557C40.1584 13.6643 40.2446 13.6815 40.3395 13.6902V15.5708C40.2015 15.5449 40.0635 15.5277 39.9168 15.5104C39.7702 15.4932 39.6321 15.4845 39.4941 15.4845C39.1663 15.4845 38.8557 15.5536 38.5624 15.683C38.2691 15.8124 38.0189 16.0108 37.8032 16.261C37.5876 16.5198 37.415 16.8303 37.2856 17.2099C37.1562 17.5895 37.0958 18.0209 37.0958 18.5126V22.7225H35.1461V13.8799H35.1548ZM49.3029 22.7311H47.3877V21.4975H47.3532C47.1116 21.9461 46.7579 22.2998 46.2835 22.5672C45.809 22.8347 45.3259 22.9727 44.8341 22.9727C43.6695 22.9727 42.8241 22.688 42.3065 22.11C41.7889 21.532 41.53 20.6607 41.53 19.4961V13.8799H43.4797V19.3063C43.4797 20.0827 43.6264 20.6348 43.9283 20.954C44.2216 21.2732 44.6444 21.4371 45.1792 21.4371C45.5933 21.4371 45.9298 21.3767 46.2058 21.2473C46.4819 21.1179 46.7062 20.954 46.8701 20.7383C47.0426 20.5313 47.1634 20.2725 47.241 19.9792C47.3187 19.6858 47.3532 19.3666 47.3532 19.0216V13.8886H49.3029V22.7311ZM52.6242 19.8929C52.6846 20.4623 52.9003 20.8591 53.2712 21.092C53.6508 21.3163 54.0994 21.4371 54.6257 21.4371C54.8068 21.4371 55.0139 21.4198 55.2468 21.394C55.4797 21.3681 55.704 21.3077 55.9024 21.2301C56.1095 21.1524 56.2734 21.0316 56.4114 20.8764C56.5408 20.7211 56.6012 20.5227 56.5926 20.2725C56.584 20.0223 56.4891 19.8152 56.3165 19.66C56.144 19.4961 55.9283 19.3753 55.6609 19.2718C55.3935 19.1769 55.0915 19.0906 54.7464 19.0216C54.4014 18.9526 54.0563 18.8749 53.7026 18.7973C53.3403 18.7196 52.9866 18.6161 52.6501 18.504C52.3137 18.3918 52.0117 18.2365 51.7443 18.0381C51.4768 17.8483 51.2612 17.5981 51.1059 17.2962C50.942 16.9943 50.8643 16.6233 50.8643 16.1747C50.8643 15.6916 50.9851 15.2948 51.218 14.9669C51.451 14.6391 51.7529 14.3803 52.1066 14.1819C52.4689 13.9835 52.8658 13.8454 53.3057 13.7592C53.7457 13.6815 54.1684 13.6384 54.5653 13.6384C55.0225 13.6384 55.4625 13.6902 55.8766 13.7851C56.2907 13.8799 56.6702 14.0352 57.0067 14.2595C57.3431 14.4752 57.6192 14.7599 57.8435 15.105C58.0678 15.45 58.2058 15.8728 58.2662 16.3645H56.2303C56.1354 15.8986 55.9283 15.5794 55.5919 15.4242C55.2554 15.2603 54.8672 15.1826 54.4359 15.1826C54.2978 15.1826 54.1339 15.1912 53.9441 15.2171C53.7543 15.243 53.5818 15.2861 53.4093 15.3465C53.2454 15.4069 53.1073 15.5018 52.9866 15.6226C52.8744 15.7434 52.814 15.8986 52.814 16.0971C52.814 16.3386 52.9003 16.5284 53.0642 16.6751C53.2281 16.8217 53.4438 16.9425 53.7112 17.046C53.9786 17.1409 54.2806 17.2272 54.6257 17.2962C54.9707 17.3652 55.3244 17.4429 55.6868 17.5205C56.0405 17.5981 56.3855 17.7017 56.7306 17.8138C57.0757 17.926 57.3776 18.0812 57.6451 18.2797C57.9125 18.4781 58.1282 18.7196 58.2921 19.0129C58.456 19.3063 58.5423 19.6772 58.5423 20.1086C58.5423 20.6348 58.4215 21.0748 58.1799 21.4457C57.9384 21.8081 57.6278 22.11 57.2482 22.3343C56.8687 22.5586 56.4373 22.7311 55.9715 22.8347C55.5056 22.9382 55.0398 22.9899 54.5825 22.9899C54.0218 22.9899 53.5042 22.9296 53.0297 22.8001C52.5552 22.6707 52.1411 22.481 51.796 22.2308C51.451 21.972 51.1749 21.6528 50.9765 21.2732C50.7781 20.8936 50.6745 20.4364 50.6573 19.9101H52.6242V19.8929ZM59.0599 13.8799H60.5351V11.2229H62.4848V13.8799H64.2446V15.3379H62.4848V20.0654C62.4848 20.2725 62.4934 20.445 62.5106 20.6003C62.5279 20.747 62.571 20.8764 62.6314 20.9799C62.6918 21.0834 62.7867 21.161 62.9161 21.2128C63.0455 21.2646 63.2094 21.2904 63.4337 21.2904C63.5717 21.2904 63.7098 21.2904 63.8478 21.2818C63.9858 21.2732 64.1239 21.2559 64.2619 21.2214V22.7311C64.0462 22.757 63.8305 22.7743 63.6321 22.8001C63.4251 22.826 63.218 22.8347 63.0024 22.8347C62.4848 22.8347 62.0707 22.7829 61.7601 22.688C61.4495 22.5931 61.1994 22.4464 61.0268 22.2567C60.8456 22.0669 60.7335 21.8339 60.6645 21.5493C60.6041 21.2646 60.561 20.9367 60.5523 20.5744V15.3551H59.0771V13.8799H59.0599ZM65.6249 13.8799H67.4711V15.0791H67.5056C67.7817 14.5615 68.1612 14.1991 68.653 13.9748C69.1447 13.7505 69.6709 13.6384 70.249 13.6384C70.9477 13.6384 71.5516 13.7592 72.0692 14.0094C72.5868 14.2509 73.0182 14.5874 73.3633 15.0187C73.7083 15.45 73.9585 15.9504 74.1311 16.5198C74.3036 17.0892 74.3899 17.7017 74.3899 18.3487C74.3899 18.9439 74.3122 19.5219 74.1569 20.0741C74.0017 20.6348 73.7687 21.1265 73.4582 21.5579C73.1476 21.9892 72.7507 22.3257 72.2676 22.5845C71.7845 22.8433 71.2238 22.9727 70.5681 22.9727C70.2835 22.9727 69.9988 22.9468 69.7141 22.895C69.4294 22.8433 69.1533 22.757 68.8945 22.6449C68.6357 22.5327 68.3855 22.3861 68.1699 22.2049C67.9456 22.0237 67.7644 21.8167 67.6091 21.5838H67.5746V26.0007H65.6249V13.8799ZM72.4402 18.3142C72.4402 17.9173 72.3884 17.5291 72.2849 17.1495C72.1814 16.77 72.0261 16.4421 71.819 16.1488C71.612 15.8555 71.3532 15.6226 71.0513 15.45C70.7407 15.2775 70.387 15.1826 69.9901 15.1826C69.1706 15.1826 68.5495 15.4673 68.1354 16.0367C67.7213 16.606 67.5142 17.3652 67.5142 18.3142C67.5142 18.7628 67.566 19.1769 67.6781 19.5564C67.7903 19.936 67.9456 20.2638 68.1699 20.5399C68.3855 20.816 68.6444 21.0316 68.9463 21.1869C69.2482 21.3508 69.6019 21.4285 69.9988 21.4285C70.4474 21.4285 70.8183 21.3336 71.1289 21.1524C71.4395 20.9712 71.6896 20.7297 71.8881 20.445C72.0865 20.1517 72.2331 19.8239 72.3194 19.4529C72.397 19.082 72.4402 18.7024 72.4402 18.3142ZM75.8823 10.5068H77.832V12.353H75.8823V10.5068ZM75.8823 13.8799H77.832V22.7311H75.8823V13.8799ZM79.5746 10.5068H81.5243V22.7311H79.5746V10.5068ZM87.5027 22.9727C86.7953 22.9727 86.1656 22.8519 85.6134 22.619C85.0613 22.3861 84.5955 22.0582 84.2073 21.6528C83.8277 21.2387 83.5344 20.747 83.3359 20.1776C83.1375 19.6082 83.034 18.9784 83.034 18.2969C83.034 17.624 83.1375 17.0029 83.3359 16.4335C83.5344 15.8641 83.8277 15.3724 84.2073 14.9583C84.5868 14.5442 85.0613 14.225 85.6134 13.9921C86.1656 13.7592 86.7953 13.6384 87.5027 13.6384C88.2101 13.6384 88.8399 13.7592 89.392 13.9921C89.9441 14.225 90.41 14.5528 90.7982 14.9583C91.1778 15.3724 91.4711 15.8641 91.6695 16.4335C91.8679 17.0029 91.9715 17.624 91.9715 18.2969C91.9715 18.9784 91.8679 19.6082 91.6695 20.1776C91.4711 20.747 91.1778 21.2387 90.7982 21.6528C90.4186 22.0669 89.9441 22.3861 89.392 22.619C88.8399 22.8519 88.2101 22.9727 87.5027 22.9727ZM87.5027 21.4285C87.9341 21.4285 88.3137 21.3336 88.6329 21.1524C88.952 20.9712 89.2109 20.7297 89.4179 20.4364C89.6249 20.1431 89.7716 19.8066 89.8751 19.4357C89.97 19.0647 90.0218 18.6851 90.0218 18.2969C90.0218 17.9173 89.97 17.5464 89.8751 17.1668C89.7802 16.7872 89.6249 16.4594 89.4179 16.1661C89.2109 15.8728 88.952 15.6398 88.6329 15.4587C88.3137 15.2775 87.9341 15.1826 87.5027 15.1826C87.0714 15.1826 86.6918 15.2775 86.3726 15.4587C86.0534 15.6398 85.7946 15.8814 85.5876 16.1661C85.3805 16.4594 85.2339 16.7872 85.1303 17.1668C85.0354 17.5464 84.9837 17.9173 84.9837 18.2969C84.9837 18.6851 85.0354 19.0647 85.1303 19.4357C85.2252 19.8066 85.3805 20.1431 85.5876 20.4364C85.7946 20.7297 86.0534 20.9712 86.3726 21.1524C86.6918 21.3422 87.0714 21.4285 87.5027 21.4285ZM92.5408 13.8799H94.016V11.2229H95.9657V13.8799H97.7256V15.3379H95.9657V20.0654C95.9657 20.2725 95.9743 20.445 95.9916 20.6003C96.0088 20.747 96.052 20.8764 96.1124 20.9799C96.1728 21.0834 96.2676 21.161 96.3971 21.2128C96.5265 21.2646 96.6904 21.2904 96.9147 21.2904C97.0527 21.2904 97.1907 21.2904 97.3288 21.2818C97.4668 21.2732 97.6048 21.2559 97.7428 21.2214V22.7311C97.5272 22.757 97.3115 22.7743 97.1131 22.8001C96.906 22.826 96.699 22.8347 96.4833 22.8347C95.9657 22.8347 95.5516 22.7829 95.2411 22.688C94.9305 22.5931 94.6803 22.4464 94.5078 22.2567C94.3266 22.0669 94.2145 21.8339 94.1454 21.5493C94.0851 21.2646 94.0419 20.9367 94.0333 20.5744V15.3551H92.5581V13.8799H92.5408Z" fill="black"/>
<path d="M23.4047 10.5061H14.4673L11.7067 2L8.93746 10.5061L0 10.4975L7.23796 15.7599L4.46873 24.2574L11.7067 19.0036L18.936 24.2574L16.1754 15.7599L23.4047 10.5061Z" fill="#00B67A"/>
<path d="M16.7969 17.6845L16.1758 15.7607L11.707 19.0045L16.7969 17.6845Z" fill="#005128"/>
</g>
<defs>
<clipPath id="clip0_7801_81592">
<rect width="97.7254" height="24" fill="white" transform="translate(0 2)"/>
</clipPath>
</defs>
</svg>
